<?xml version="1.0" standalone="no"?>
<!DOCTYPE svg PUBLIC "-//W3C//DTD SVG 20010904//EN"
 "http://www.w3.org/TR/2001/REC-SVG-20010904/DTD/svg10.dtd">
<svg version="1.0" xmlns="http://www.w3.org/2000/svg"
 width="1024.000000pt" height="1024.000000pt" viewBox="0 0 1024.000000 1024.000000"
 preserveAspectRatio="xMidYMid meet">

<g transform="translate(0.000000,1024.000000) scale(0.100000,-0.100000)"
fill="#000000" stroke="none">
<path d="M1980 10043 c-44 -27 -77 -50 -255 -178 -111 -80 -129 -95 -138 -117
-9 -25 2 -22 32 6 32 29 365 262 404 282 28 15 37 34 15 34 -7 -1 -33 -13 -58
-27z"/>
<path d="M2080 10027 c-45 -22 -285 -184 -357 -242 -38 -30 -76 -68 -84 -83
-11 -21 -15 -101 -17 -375 -3 -306 -1 -348 13 -353 13 -6 15 -150 15 -1387 l0
-1381 -22 -33 c-13 -18 -26 -33 -30 -33 -5 0 -8 53 -8 118 0 64 0 400 0 747
l0 630 -62 -87 c-119 -165 -148 -219 -148 -278 0 -50 -1 -52 -23 -46 -21 5
-29 -4 -69 -72 -110 -186 -128 -226 -128 -281 0 -42 -3 -52 -14 -48 -8 3 -19
0 -24 -6 -14 -17 -99 -235 -132 -337 -80 -247 -112 -354 -126 -416 -8 -38 -16
-76 -19 -84 -2 -8 -11 -49 -20 -90 -23 -105 -23 -103 -30 -121 -4 -11 2 -20
22 -28 64 -26 162 -140 199 -229 19 -46 23 -75 23 -152 0 -102 -11 -150 -24
-117 -6 15 -17 18 -56 16 -28 -2 -54 3 -63 10 -14 12 -17 9 -22 -17 -8 -41
-92 -132 -147 -161 -67 -34 -149 -41 -217 -17 -30 10 -68 28 -85 40 -18 12
-25 14 -18 5 7 -9 9 -20 5 -24 -4 -5 0 -5 8 -1 8 4 5 -1 -8 -10 -12 -9 -22
-24 -23 -33 0 -12 -2 -11 -9 4 -7 17 -9 17 -9 3 -1 -17 -11 -22 -38 -19 -7 1
-13 -3 -13 -9 0 -12 -22 -9 -32 5 -5 6 -8 6 -8 -1 0 -17 37 -47 50 -39 6 3 9
1 8 -6 -4 -18 101 -68 144 -69 20 0 40 -5 44 -11 7 -12 137 -7 195 7 l26 6 8
-119 c4 -65 13 -165 20 -223 7 -58 13 -114 12 -124 0 -10 -21 -37 -46 -60 -93
-82 -321 -318 -321 -332 0 -8 7 -17 16 -21 11 -4 67 48 190 176 97 99 180 181
186 181 31 0 -16 -60 -166 -209 -113 -113 -164 -170 -154 -173 9 -4 69 52 169
158 143 152 169 176 169 157 0 -5 -63 -77 -141 -162 -115 -126 -138 -156 -125
-163 20 -11 57 17 112 87 49 62 145 169 156 173 20 9 5 -28 -28 -66 -19 -23
-33 -46 -30 -51 4 -5 1 -13 -5 -17 -8 -5 -9 -3 -4 7 4 8 -8 -2 -28 -20 -21
-19 -37 -37 -37 -40 0 -3 14 8 30 24 17 16 30 24 30 19 0 -12 -55 -67 -65 -64
-3 0 -22 -13 -41 -29 -19 -17 -30 -31 -25 -31 5 0 13 5 17 11 4 8 9 7 14 -2 7
-10 14 -9 34 5 14 9 26 22 26 30 0 7 27 42 60 77 44 48 59 59 60 44 0 -10 -21
-41 -47 -67 -52 -53 -39 -67 14 -16 38 36 47 32 48 -21 0 -22 3 -37 7 -35 4 3
12 -15 18 -38 19 -76 84 -269 95 -283 9 -13 94 -22 355 -39 131 -9 182 -18
187 -35 11 -31 105 -276 118 -306 7 -16 16 -41 19 -55 6 -23 6 -23 -7 -8 -8
10 -18 14 -22 10 -4 -4 -5 5 -3 21 l5 27 -118 0 -119 0 0 -42 c0 -24 -3 -94
-7 -155 l-6 -113 146 0 147 0 1 108 c1 125 16 104 18 -25 l1 -82 40 -3 40 -3
44 -97 c28 -62 40 -101 35 -110 -7 -10 -9 -10 -9 0 0 9 -10 11 -32 8 -18 -3
-54 -8 -80 -11 -32 -4 -48 -11 -48 -21 0 -8 -8 -14 -17 -14 -19 0 -79 -18
-105 -31 -10 -5 -38 -9 -62 -9 -25 0 -49 -6 -53 -12 -10 -17 -49 -38 -68 -38
-8 0 -15 -7 -15 -15 0 -8 7 -15 17 -15 28 0 8 -10 -38 -19 -32 -6 10 -9 147
-10 l191 -1 -5 -116 -5 -115 44 -45 c24 -24 69 -60 101 -80 55 -35 79 -56 39
-34 -11 5 -31 10 -44 10 -13 0 -32 9 -42 20 -10 11 -23 20 -29 20 -6 0 -3 -5
7 -11 24 -14 21 -31 -5 -27 -14 2 -22 9 -20 18 3 13 1 13 -12 0 -12 -12 -15
-49 -16 -200 l-2 -185 117 -3 c86 -2 115 -6 112 -15 -2 -8 -40 -13 -120 -15
l-117 -3 0 -201 0 -201 49 5 c70 7 169 57 229 116 29 28 52 54 52 57 0 3 10
22 23 43 44 70 51 101 63 305 7 122 -1 115 110 97 34 -5 85 -12 115 -15 30 -3
90 -10 134 -15 44 -6 81 -10 82 -10 2 0 3 -72 3 -160 0 -122 -3 -160 -12 -160
-7 1 -42 5 -78 10 -126 17 -305 40 -317 40 -7 0 -13 -11 -13 -25 0 -21 5 -25
30 -25 17 0 30 -4 30 -10 0 -5 -6 -7 -13 -4 -14 5 -78 -148 -101 -242 -7 -33
-21 -84 -29 -114 -31 -107 -77 -476 -77 -621 l0 -79 565 -2 c311 -1 593 -2
627 -3 74 0 51 -34 194 285 118 262 234 546 248 611 5 22 10 25 31 21 14 -2
25 -10 25 -17 0 -8 28 -15 80 -21 75 -9 80 -9 80 9 0 17 6 18 68 12 37 -4 78
-8 92 -10 14 -2 70 -7 125 -11 91 -6 103 -9 133 -35 29 -26 40 -29 97 -29 l65
0 0 -42 c-1 -146 25 -768 32 -768 4 0 8 46 9 103 1 56 6 241 13 411 l11 310
46 11 46 12 6 -171 c4 -94 7 -284 7 -423 0 -157 4 -254 10 -258 7 -4 10 117
10 357 0 200 3 393 6 430 l7 67 56 16 c31 8 76 24 100 36 24 11 45 18 47 16 3
-3 6 -30 20 -197 3 -36 11 -126 19 -200 19 -176 24 -244 25 -302 l0 -47 133 5
c158 7 469 39 587 61 47 9 92 17 100 18 8 1 42 8 75 15 74 17 74 17 78 20 1 1
9 3 17 5 8 1 35 8 60 15 25 7 50 13 55 14 33 8 356 114 435 143 389 147 521
212 794 390 86 56 97 67 91 86 -9 32 -12 61 -13 170 l-2 97 -165 0 -165 0 0
-51 c0 -37 -3 -49 -12 -46 -7 3 -56 20 -108 38 -52 18 -89 34 -82 36 20 7 14
23 -9 23 -18 0 -19 2 -9 15 7 9 31 16 59 17 37 1 39 2 13 5 -19 3 -30 8 -26
15 18 28 -38 -20 -193 -169 -158 -151 -169 -164 -165 -193 6 -40 -21 -70 -63
-70 -43 0 -66 20 -74 63 -5 29 -42 73 -214 251 -186 192 -212 216 -240 216
-24 0 -36 -7 -49 -28 -9 -15 -48 -76 -87 -136 -66 -102 -70 -111 -64 -151 4
-35 2 -46 -16 -64 -30 -30 -73 -27 -108 7 -24 24 -48 32 -168 55 -160 31 -176
32 -213 13 -54 -27 -112 3 -112 59 0 37 35 75 68 75 25 0 32 13 98 167 25 59
59 134 75 166 27 53 28 59 14 80 -21 31 -19 54 10 82 31 32 70 32 99 0 18 -20
33 -25 70 -25 l46 0 0 155 0 155 -83 0 c-53 0 -107 -7 -152 -20 -122 -36 -216
-51 -347 -57 l-128 -6 0 327 c0 179 -1 329 -2 333 -4 9 147 86 231 117 36 13
106 37 156 51 49 15 111 38 137 51 47 24 52 24 321 24 151 0 322 -3 380 -7 97
-5 107 -8 107 -25 0 -54 96 -239 166 -322 31 -37 36 -56 13 -56 -6 0 -7 5 -4
10 8 13 -25 -1 -137 -60 -48 -24 -84 -48 -82 -52 3 -4 36 -8 74 -8 67 0 69 1
73 28 l4 27 2 -27 c1 -28 1 -28 74 -28 214 2 698 -12 737 -21 85 -18 159 -22
175 -9 8 7 29 15 47 19 33 7 69 53 297 387 49 72 103 151 120 174 23 32 31 54
31 87 0 98 107 115 144 23 10 -26 44 -62 103 -113 l89 -75 59 2 c56 2 67 6
184 80 69 43 229 148 357 232 215 142 233 156 236 185 7 72 94 89 125 24 29
-62 -4 -105 -81 -105 -37 0 -105 -39 -341 -196 -82 -55 -210 -137 -282 -183
-109 -68 -133 -87 -133 -106 0 -28 -43 -65 -75 -65 -27 0 -65 39 -65 67 0 14
-33 50 -100 107 -85 74 -103 85 -119 76 -11 -5 -31 -10 -45 -10 -14 0 -26 -4
-26 -9 0 -13 -210 -320 -380 -556 -22 -31 -27 -47 -23 -72 5 -31 8 -33 47 -34
22 0 48 -2 56 -4 8 -1 51 -8 95 -15 44 -7 89 -14 100 -16 11 -2 33 -7 50 -10
16 -3 31 -6 32 -8 1 -1 -11 -18 -27 -38 -61 -74 -120 -171 -156 -259 -21 -50
-44 -93 -51 -96 -8 -3 -11 -13 -8 -23 8 -25 -13 -37 -70 -43 -76 -8 -85 -14
-85 -56 0 -20 4 -31 8 -24 5 8 13 9 22 3 8 -6 35 -10 59 -10 l44 0 -6 -47 c-9
-69 -10 -275 -2 -296 4 -9 5 -26 2 -37 -3 -11 -2 -20 3 -20 4 0 10 -27 14 -60
4 -33 11 -60 16 -60 4 0 12 -15 16 -32 25 -119 170 -352 287 -465 146 -141
248 -205 432 -273 145 -54 248 -71 415 -69 176 2 254 13 370 54 214 74 310
134 460 284 83 83 119 129 167 211 59 101 96 182 114 245 4 17 14 55 23 85 14
54 18 80 32 206 5 51 -1 134 -20 274 -18 125 -108 349 -194 478 -55 83 -211
235 -304 295 -162 106 -353 185 -455 190 -18 1 -16 15 8 67 12 25 36 85 55
135 19 49 39 94 44 100 13 15 99 283 139 430 18 66 36 127 39 135 3 8 6 22 7
30 8 64 18 110 25 115 5 3 -16 29 -46 57 -38 36 -67 76 -91 126 -32 67 -36 85
-41 181 -5 121 9 190 59 277 32 57 113 143 159 171 l31 18 -2 104 c-3 186 -16
338 -49 571 -12 80 -23 164 -26 186 -3 23 -7 53 -10 65 -2 13 -9 51 -14 84
-12 79 -45 222 -59 259 -7 16 -9 31 -6 35 4 3 39 7 78 8 157 4 298 69 417 193
112 116 161 230 168 388 l4 103 -33 -4 c-19 -3 -43 -8 -53 -13 -13 -5 -17 -4
-13 3 4 7 -3 10 -17 9 -22 -1 -23 -3 -9 -18 8 -9 13 -25 11 -35 -4 -23 -41
-29 -58 -8 -11 13 -10 19 6 38 10 12 12 17 5 10 -12 -10 -21 -6 -47 22 -39 41
-56 43 -95 10 -19 -15 -49 -27 -79 -31 -43 -6 -47 -8 -34 -21 17 -18 17 -33 0
-55 -18 -24 -51 -23 -77 3 -19 19 -19 22 -4 45 15 23 14 24 -4 24 -11 0 -23 5
-26 10 -11 17 -172 6 -194 -14 -10 -9 -21 -13 -26 -9 -4 5 -5 0 -2 -10 4 -10
1 -28 -5 -40 -7 -12 -12 -24 -11 -27 2 -9 -40 -6 -54 3 -7 5 -13 5 -13 0 0 -4
-4 -2 -8 5 -11 17 -211 25 -230 9 -10 -8 -15 -8 -21 1 -4 7 -12 8 -21 2 -13
-8 -13 -10 -1 -10 9 0 11 -3 5 -9 -16 -15 -152 -22 -161 -8 -4 7 -9 54 -10
106 -1 79 3 106 28 179 26 78 98 214 120 228 25 15 5 59 -68 147 -43 50 -100
121 -128 156 -140 179 -457 512 -549 578 -28 20 -64 49 -81 63 -16 15 -66 52
-110 82 -44 30 -102 70 -130 89 -175 123 -653 393 -845 478 -41 18 -83 37 -92
42 -59 31 -272 107 -348 124 -8 2 -69 20 -135 40 -66 20 -127 38 -136 40 -9 2
-34 9 -55 15 -62 19 -171 39 -289 55 -60 7 -130 16 -155 20 -192 24 -603 31
-840 14 -175 -13 -429 -39 -464 -48 -29 -7 -29 -7 51 -63 142 -100 309 -311
366 -463 51 -136 108 -358 94 -371 -2 -3 -31 -9 -63 -14 -33 -5 -70 -11 -84
-15 -14 -3 -47 -8 -75 -11 -27 -4 -53 -8 -57 -10 -4 -3 -26 -7 -50 -10 -24 -3
-70 -10 -103 -16 -119 -20 -264 -37 -376 -44 l-87 -5 -7 118 c-4 65 -9 133
-11 152 -2 18 -6 64 -9 101 -6 89 -30 249 -51 336 -9 38 -18 79 -20 91 -7 38
-76 226 -96 261 -10 18 -18 34 -18 36 0 2 20 7 44 10 24 4 49 13 55 20 17 20
-2 69 -36 88 -40 24 -125 26 -158 4 -29 -19 -34 -65 -11 -89 13 -13 4 -21 -67
-68 -45 -30 -102 -72 -125 -93 -50 -46 -153 -169 -201 -238 -72 -107 -170
-330 -202 -458 -7 -30 -15 -47 -17 -38 -2 13 -19 18 -73 24 -50 5 -69 10 -69
21 0 9 -8 13 -22 11 -27 -4 -37 -44 -37 -160 -1 -96 -5 -106 -38 -100 l-26 5
5 148 c3 82 4 149 1 149 -12 0 -72 -48 -66 -53 3 -4 -3 -7 -13 -7 -22 0 -145
-84 -183 -124 -14 -14 -33 -26 -43 -26 -11 0 -16 -4 -13 -10 3 -5 2 -10 -4
-10 -5 0 -37 -29 -72 -65 -34 -36 -67 -65 -72 -65 -17 0 0 701 17 718 7 7 73
36 147 63 283 106 451 182 495 224 55 53 70 116 49 207 -34 152 -80 295 -111
347 -25 42 -87 70 -141 65 -56 -5 -108 -32 -261 -133 -252 -167 -351 -255
-370 -334 -10 -39 -12 -173 -6 -422 1 -55 2 -142 3 -192 l1 -93 30 0 30 0 0
-1093 0 -1094 -25 -23 -25 -23 0 134 c-1 74 0 332 0 574 1 540 -9 895 -23 869
-6 -11 -40 -54 -76 -98 l-66 -78 -5 533 c-4 360 -6 104 -8 -787 -2 -1265 -3
-1322 -20 -1337 -10 -10 -21 -17 -24 -17 -16 0 -19 305 -12 1451 l7 1269 29 0
c16 0 31 6 33 13 6 14 13 145 14 254 l1 71 45 18 c43 16 45 19 45 56 0 40 17
81 54 131 27 37 220 177 401 292 77 48 141 89 143 90 2 2 -4 5 -12 8 -8 3 -40
-8 -72 -24 -31 -17 -57 -29 -59 -27 -2 2 -19 31 -40 66 -54 93 -142 140 -205
109z m113 -76 c31 -28 82 -119 73 -129 -3 -3 -6 -1 -6 4 0 6 -6 19 -14 29 -13
18 -18 16 -102 -37 -49 -30 -109 -66 -134 -79 -25 -13 -82 -45 -128 -72 -46
-27 -85 -47 -88 -44 -6 5 154 105 261 162 39 21 94 53 123 72 57 36 58 46 13
87 -18 17 -26 18 -60 8 -21 -7 -52 -25 -67 -41 -16 -16 -76 -57 -134 -91 -198
-119 -229 -149 -230 -226 0 -106 -13 -264 -22 -264 -4 0 -8 76 -8 168 0 168 0
168 28 204 15 20 50 54 77 75 64 50 251 172 290 189 46 20 96 15 128 -15z
m-18 -50 c-16 -10 -44 -27 -62 -37 -17 -10 -74 -45 -127 -76 -52 -32 -97 -58
-101 -58 -3 0 -24 -12 -46 -26 -23 -14 -39 -20 -37 -14 3 11 188 129 313 201
57 32 112 42 60 10z m56 -85 c-24 -29 -485 -293 -479 -274 4 11 67 49 218 131
41 22 117 66 170 98 105 64 107 65 91 45z m368 -27 c36 -13 56 -46 90 -151 28
-83 23 -92 -79 -149 -41 -23 -100 -57 -130 -75 -30 -17 -77 -43 -105 -57 -27
-14 -61 -34 -74 -46 -13 -12 -27 -21 -31 -21 -4 0 -47 -27 -96 -60 -49 -32
-91 -57 -93 -54 -7 6 51 53 66 54 6 0 13 4 15 8 4 11 94 72 107 72 5 0 16 6
23 13 7 7 67 44 134 83 66 38 119 74 117 80 -4 12 26 28 35 19 3 -3 0 -5 -6
-5 -7 0 -12 -4 -12 -10 0 -16 30 1 31 19 0 10 2 11 6 3 2 -6 9 -10 13 -7 5 3
6 13 3 22 -5 12 -2 15 10 10 24 -9 53 3 35 14 -9 6 -7 9 9 9 30 0 35 13 20 50
l-14 31 -33 -27 c-45 -39 -179 -114 -202 -114 -17 0 -203 -92 -223 -111 -5 -5
-16 -9 -25 -9 -8 0 9 14 39 30 29 16 59 34 65 39 31 26 128 71 138 65 6 -4 8
-3 5 3 -4 6 0 14 9 17 8 3 12 2 9 -4 -3 -5 44 21 104 57 103 62 110 69 104 92
-9 41 -18 44 -49 18 -16 -13 -55 -38 -86 -56 -32 -18 -62 -40 -68 -49 -5 -9
-10 -14 -10 -9 0 4 -18 -4 -40 -18 -22 -14 -42 -25 -45 -25 -8 0 -118 -71
-175 -115 -81 -61 -92 -63 -32 -6 29 27 91 74 139 103 78 49 105 79 83 93 -4
3 -13 -2 -20 -10 -7 -8 -19 -15 -27 -15 -13 0 -13 2 -2 17 10 12 6 11 -16 -4
-16 -11 -63 -42 -104 -69 -89 -59 -167 -127 -185 -163 -8 -15 -16 -83 -20
-166 -15 -326 -33 -337 -35 -22 -1 139 3 196 13 220 23 55 112 137 252 232
157 108 159 109 166 120 4 6 8 7 8 3 0 -4 24 4 53 17 58 27 88 30 136 14z
m-519 -114 c0 -11 -320 -209 -326 -202 -7 7 14 21 171 116 158 96 155 94 155
86z m235 -95 c-3 -5 -12 -10 -18 -10 -7 0 -6 4 3 10 19 12 23 12 15 0z m-15
-34 c0 -2 -7 -7 -16 -10 -8 -3 -12 -2 -9 4 6 10 25 14 25 6z m434 -69 c24
-103 25 -101 -49 -131 -36 -14 -84 -35 -108 -45 -108 -49 -227 -101 -231 -101
-3 0 -60 -25 -126 -56 -67 -30 -124 -53 -127 -50 -8 8 38 33 142 76 55 23 128
55 163 71 35 16 66 29 69 29 2 0 32 13 66 28 34 16 95 42 135 58 l73 29 -5 34
c-3 18 -7 36 -10 38 -2 3 -117 -51 -255 -120 -138 -69 -251 -123 -251 -121 0
9 24 29 50 42 14 6 32 16 40 21 8 5 83 42 165 81 247 118 241 113 237 157 -5
54 4 38 22 -40z m-224 29 c0 -2 -7 -7 -16 -10 -8 -3 -12 -2 -9 4 6 10 25 14
25 6z m-45 -25 c-12 -12 -159 -96 -245 -141 -36 -19 -77 -42 -92 -52 -14 -10
-32 -18 -40 -18 -19 0 37 43 91 69 25 13 53 26 61 30 29 15 155 85 185 103 32
19 56 25 40 9z m-636 -27 c-17 -20 -69 -47 -69 -35 0 9 58 49 74 50 5 1 3 -6
-5 -15z m11 -62 c0 -7 -72 -42 -88 -42 -9 0 70 49 81 50 4 0 7 -3 7 -8z m1694
-84 c58 -167 102 -377 125 -608 6 -52 15 -140 21 -195 6 -55 10 -131 8 -169
l-3 -69 -105 -3 c-187 -5 -554 15 -580 31 -5 3 -11 1 -15 -5 -29 -46 -29 114
0 250 3 14 8 41 11 60 51 342 212 610 453 752 25 15 49 27 52 27 4 1 18 -32
33 -71z m-844 -37 c0 -5 -12 -14 -27 -19 -16 -6 -89 -36 -163 -67 -74 -31
-151 -62 -170 -69 -19 -8 -55 -23 -80 -34 -61 -29 -182 -73 -187 -69 -4 5 20
16 152 70 61 25 170 71 243 101 72 31 136 56 140 56 5 0 26 9 48 20 46 23 44
22 44 11z m-495 -71 c-9 -15 -45 -32 -45 -22 0 5 10 14 23 20 29 14 29 14 22
2z m4015 -290 c0 -5 -5 -10 -11 -10 -5 0 -7 5 -4 10 3 6 8 10 11 10 2 0 4 -4
4 -10z m287 -7 c-20 -2 -52 -2 -70 0 -17 2 0 4 38 4 39 0 53 -2 32 -4z m80 1
c-3 -3 -12 -4 -19 -1 -8 3 -5 6 6 6 11 1 17 -2 13 -5z m86 -1 c-13 -2 -33 -2
-45 0 -13 2 -3 4 22 4 25 0 35 -2 23 -4z m-1089 -114 c17 -13 26 -30 26 -48 0
-24 23 -49 147 -157 81 -71 177 -157 213 -191 l65 -61 62 7 c36 4 75 16 95 29
18 13 82 52 143 87 122 72 126 73 285 56 47 -6 154 -13 238 -17 l152 -7 0 23
c0 29 35 77 70 95 16 8 51 15 79 15 60 0 103 -31 122 -87 31 -95 -62 -198
-163 -179 -36 7 -98 51 -98 71 0 7 -19 12 -47 13 -27 1 -97 6 -158 12 -60 5
-166 12 -235 14 l-126 5 -149 -88 c-117 -71 -149 -94 -150 -112 -2 -26 -39
-59 -67 -59 -22 0 -68 43 -68 64 0 8 -37 47 -82 87 -46 39 -127 113 -182 163
-190 176 -172 162 -213 158 -40 -5 -52 -14 -108 -82 -20 -25 -70 -79 -111
-121 -41 -42 -74 -84 -74 -93 0 -29 -18 -53 -50 -66 -61 -25 -113 45 -73 98
17 22 29 27 63 27 41 0 44 3 161 130 86 94 119 137 119 155 0 34 25 68 53 73
12 2 25 5 28 6 4 0 18 -8 33 -20z m-3492 -1081 c2 -1107 1 -1130 -15 -1140
-38 -24 -37 -42 -37 1057 l0 1065 25 0 25 0 2 -982z m4706 935 l3 -23 -390 0
-391 0 0 23 0 24 388 -1 387 -1 3 -22z m-4288 -232 c0 -28 -4 -53 -10 -56 -6
-4 -10 15 -10 49 0 31 5 56 10 56 6 0 10 -22 10 -49z m2278 -103 c53 -28 153
-83 222 -121 69 -39 152 -83 185 -100 104 -52 125 -72 125 -119 0 -35 -6 -47
-44 -84 -26 -26 -53 -44 -67 -45 -13 0 -33 -2 -44 -5 -45 -9 -192 15 -248 41
-31 14 -57 27 -57 29 0 1 26 -1 58 -6 95 -14 254 -14 280 0 32 18 55 57 47 82
-4 12 -22 28 -41 36 -41 17 -79 12 -174 -23 -186 -69 -231 -82 -325 -99 -11
-1 -29 -5 -40 -8 -167 -40 -303 -47 -415 -21 -77 18 -206 82 -416 206 -84 49
-155 89 -158 89 -3 0 -25 12 -49 28 l-43 27 55 0 c94 1 222 7 296 16 39 4 99
10 134 14 34 4 72 8 83 10 12 3 58 9 102 16 44 6 83 12 86 14 3 2 23 6 45 9
22 4 69 14 105 22 36 9 81 18 100 21 19 3 42 9 50 14 28 16 51 9 148 -43z
m-2508 -29 c0 -37 -4 -58 -10 -54 -5 3 -10 31 -10 61 0 30 5 54 10 54 6 0 10
-27 10 -61z m230 -39 c0 -27 -4 -50 -10 -50 -5 0 -10 23 -10 50 0 28 5 50 10
50 6 0 10 -22 10 -50z m188 5 c29 -7 56 -13 60 -13 4 -1 37 -6 74 -13 56 -10
66 -15 59 -28 -12 -23 -39 -174 -46 -256 -8 -89 -10 -105 -35 -254 -19 -114
-29 -256 -18 -266 2 -3 26 53 53 123 27 70 59 149 71 177 l21 50 26 -51 c31
-62 93 -119 145 -135 l40 -11 11 -107 c6 -58 13 -137 16 -176 7 -90 11 -102
50 -150 31 -40 81 -117 149 -232 43 -73 306 -593 306 -606 0 -5 -17 3 -37 19
-47 35 -610 484 -640 510 -11 11 -67 55 -124 99 -56 44 -135 108 -175 142
l-72 63 15 47 c82 261 91 317 65 390 -35 101 -50 156 -57 210 -3 28 -14 100
-25 160 -22 123 -36 294 -26 318 4 12 12 15 24 10 9 -4 41 -13 70 -20z m409
-7 c50 -21 110 -77 153 -140 39 -59 42 -66 37 -118 -4 -52 14 -137 33 -150 4
-3 13 -16 20 -30 13 -25 14 -24 25 26 21 93 93 177 214 247 l63 38 152 -88
c189 -110 264 -149 343 -179 96 -36 200 -57 255 -51 43 5 48 4 48 -13 0 -11
14 -92 31 -180 17 -88 28 -171 25 -185 -7 -29 -56 -57 -106 -60 -19 -1 -42 -3
-51 -4 -22 -2 -39 -43 -39 -95 0 -36 -4 -45 -25 -54 -23 -10 -25 -16 -20 -45
6 -29 2 -38 -34 -75 -23 -23 -42 -48 -42 -55 -1 -6 -2 -42 -3 -78 -2 -72 -18
-107 -63 -136 -21 -14 -54 -19 -155 -21 l-128 -4 -67 38 c-106 59 -411 273
-463 324 -8 8 -28 25 -44 38 -29 22 -30 26 -38 145 -5 67 -8 168 -6 225 3 88
1 101 -12 96 -8 -4 -30 -9 -48 -12 -78 -11 -180 109 -238 280 -28 83 -27 181
2 243 34 72 111 103 181 73z m388 -38 c4 -6 22 -17 41 -25 37 -15 44 -31 16
-39 -26 -9 -132 -100 -153 -133 l-19 -28 0 46 c0 52 -24 92 -92 151 l-43 38
122 0 c72 0 124 -4 128 -10z m4312 -30 c46 -10 50 -13 76 -69 31 -65 36 -128
11 -138 -9 -3 -44 4 -78 16 -33 11 -69 21 -80 21 -10 0 -91 -74 -191 -177
l-174 -178 33 -35 c101 -109 230 -334 241 -419 3 -23 9 -50 14 -59 5 -9 12
-63 16 -120 5 -65 13 -108 21 -117 17 -16 18 -37 4 -51 -6 -6 -13 -34 -17 -62
-3 -29 -10 -50 -17 -49 -7 1 -13 -30 -17 -83 -9 -115 -13 -136 -39 -200 -34
-87 -112 -231 -126 -237 -8 -3 -12 -9 -9 -13 4 -7 -138 -160 -150 -160 -3 0
-3 11 1 24 3 13 1 26 -4 29 -5 4 -9 -12 -10 -35 -1 -23 -3 -42 -4 -43 -2 0
-41 -28 -88 -61 -80 -58 -161 -106 -118 -71 10 8 14 18 10 22 -4 5 -1 5 6 1 6
-4 12 -2 12 4 0 6 4 9 9 6 12 -8 82 49 73 59 -4 5 -1 5 6 1 9 -5 12 3 12 28 0
30 -3 36 -22 36 -21 0 -21 0 -2 15 40 31 -17 3 -85 -42 -36 -23 -70 -43 -74
-43 -5 0 -6 -3 -4 -7 3 -5 -6 -9 -20 -9 -32 -2 -39 -10 -23 -28 6 -9 10 -21 7
-28 -4 -8 -8 -5 -12 10 -9 29 -25 28 -25 -1 0 -33 23 -62 41 -51 8 5 22 7 33
5 11 -1 16 2 12 8 -4 6 0 11 8 11 32 0 15 -17 -36 -37 -90 -35 -90 -36 -83
-12 5 15 4 19 -4 15 -6 -4 -11 0 -11 9 0 12 -4 13 -17 6 -10 -5 -38 -12 -63
-15 -25 -4 -61 -9 -80 -12 -68 -11 -105 -10 -102 4 1 6 -2 12 -8 12 -5 0 -10
-9 -10 -20 0 -11 -7 -20 -15 -20 -8 0 -15 9 -15 20 0 19 -7 20 -94 20 -74 0
-95 -3 -100 -15 -8 -21 -26 -19 -26 4 0 19 -18 31 -48 31 -33 0 -201 60 -259
94 -49 27 -60 30 -56 16 3 -11 -4 -24 -18 -34 -14 -9 -18 -16 -10 -16 8 0 11
-3 8 -7 -4 -3 -2 -12 4 -20 33 -39 -57 18 -118 75 -24 22 -43 35 -43 28 0 -6
-7 2 -16 19 -10 19 -11 31 -5 33 6 2 11 9 11 15 0 6 -11 0 -25 -13 -24 -23
-25 -28 -25 -146 0 -117 -1 -123 -22 -130 -33 -10 -48 19 -48 98 0 56 -3 68
-16 68 -9 0 -52 -34 -97 -75 -44 -41 -89 -75 -99 -75 -37 0 -16 38 66 118 l84
82 -69 0 -69 0 0 30 0 30 94 0 c85 0 98 2 122 23 l27 23 -74 75 c-41 41 -91
102 -111 136 -48 81 -102 235 -123 347 -9 49 -19 94 -23 100 -3 6 -5 19 -4 29
2 9 -4 20 -12 23 -18 7 -23 80 -7 86 6 2 11 27 13 55 2 29 6 53 11 53 4 0 7
13 7 28 0 94 90 320 175 436 90 126 254 281 365 347 73 43 253 118 332 137 90
23 231 32 340 22 229 -20 391 -85 602 -243 l79 -59 42 44 c23 23 96 99 161
168 116 123 119 127 132 190 22 107 29 111 129 90z m-5517 -40 c0 -36 -10 -61
-21 -54 -10 6 -12 77 -3 87 12 12 24 -4 24 -33z m220 -32 c0 -18 -5 -40 -10
-48 -7 -11 -10 -2 -10 33 0 26 5 47 10 47 6 0 10 -15 10 -32z m4834 -24 c35
-34 10 -104 -37 -104 -28 0 -41 9 -56 38 -12 23 -1 58 23 74 19 13 54 9 70 -8z
m-5054 -113 c0 -28 -4 -53 -10 -56 -6 -4 -10 15 -10 49 0 31 5 56 10 56 6 0
10 -22 10 -49z m207 -108 c-2 -21 -4 -6 -4 32 0 39 2 55 4 38 2 -18 2 -50 0
-70z m-207 -53 c0 -34 -16 -48 -23 -20 -7 26 3 61 14 54 5 -3 9 -18 9 -34z
m220 -117 c0 -24 -4 -43 -10 -43 -6 0 -10 26 -10 58 0 40 3 53 10 42 5 -8 10
-34 10 -57z m-220 -30 c0 -27 -5 -55 -10 -63 -7 -11 -10 3 -10 48 0 35 4 62
10 62 6 0 10 -21 10 -47z m2966 -95 c41 -55 74 -104 74 -109 0 -5 -9 -9 -20
-9 -21 0 -36 13 -82 68 l-27 33 -3 -336 -3 -335 38 0 c30 0 37 -4 37 -20 0
-16 -7 -20 -37 -20 l-38 0 1 -113 c1 -61 2 -207 3 -324 l1 -212 32 -3 c22 -2
34 -9 36 -20 3 -15 -4 -18 -32 -18 l-36 0 0 -349 0 -350 33 -3 c45 -4 43 -31
-3 -38 l-35 -5 -3 -172 c-3 -162 -2 -173 17 -192 21 -21 27 -21 936 -21 l915
0 0 -30 0 -30 -919 0 c-804 0 -920 -2 -931 -15 -15 -18 -70 -20 -92 -2 -30 24
-37 49 -22 79 8 15 22 31 31 37 16 8 18 30 21 179 l4 170 -42 7 c-50 8 -48 29
3 33 l37 3 0 350 0 349 -35 0 c-28 0 -35 4 -35 20 0 16 7 20 35 20 l35 0 0
325 0 325 -35 0 c-28 0 -35 4 -35 20 0 16 7 20 35 20 l35 0 0 343 -1 342 -27
-31 c-15 -17 -39 -45 -55 -62 -23 -27 -67 -44 -67 -26 0 10 91 147 127 192 19
23 39 39 45 36 5 -3 43 -51 84 -106z m3059 -891 c0 -903 -1 -972 -17 -972 -9
0 -20 -4 -24 -8 -4 -4 9 -7 29 -7 l37 0 0 425 0 425 45 0 45 0 -2 -425 -3
-425 43 0 42 0 -1 103 c-1 56 -4 92 -6 80 -2 -13 -9 -23 -14 -23 -5 0 -9 -34
-9 -75 0 -60 -3 -75 -15 -75 -13 0 -15 29 -15 205 l0 205 35 0 c40 0 36 29 35
-252 l-1 -168 101 0 c56 0 99 4 96 8 -2 4 -1 14 5 22 7 12 9 10 9 -7 0 -22 4
-23 75 -23 l75 0 0 165 c0 158 -1 165 -20 165 -15 0 -20 -7 -21 -27 l-2 -28
-4 28 c-4 24 -9 27 -41 27 l-37 0 3 90 3 90 40 0 39 0 0 -85 c0 -78 2 -85 20
-85 17 0 20 7 20 50 l0 50 35 0 35 0 0 -52 c1 -29 0 -128 0 -220 l-1 -168 48
0 c26 0 56 -7 66 -14 16 -13 16 -14 -5 -21 -13 -5 -45 -11 -73 -14 l-50 -6 3
-52 c4 -49 2 -53 -18 -53 -22 0 -22 3 -16 55 l6 55 -250 0 -250 0 0 -45 c0
-29 -4 -45 -13 -45 -8 0 -11 14 -9 45 l4 45 -106 0 -106 0 0 -25 c0 -14 -4
-25 -10 -25 -5 0 -10 11 -10 25 l0 25 -139 0 -139 0 -7 -40 c-4 -26 -12 -40
-22 -40 -12 0 -13 8 -8 40 l7 40 -101 0 -101 0 0 -55 c0 -30 -4 -55 -10 -55
-5 0 -10 25 -10 55 l0 55 -55 0 c-52 0 -55 1 -55 25 0 24 3 25 58 26 31 0 51
3 45 6 -10 3 -13 41 -13 139 0 127 1 134 20 134 19 0 20 -7 20 -140 l0 -140
135 0 135 0 0 515 0 515 40 0 c22 0 40 5 40 10 0 6 26 10 58 10 31 0 52 -4 45
-8 -8 -5 -13 -43 -14 -112 -3 -195 0 -230 16 -230 12 0 15 18 17 93 1 50 2
130 4 177 1 47 2 120 3 163 l1 77 35 0 35 0 0 -82 c0 -46 0 -318 0 -605 l0
-523 24 0 24 0 -4 133 c-2 72 -6 513 -7 980 l-3 847 40 0 41 0 0 -973z m-238
902 c41 -26 73 -85 73 -136 0 -105 -130 -176 -230 -125 -76 38 -101 127 -58
203 47 84 134 108 215 58z m-5568 -94 c0 -52 -5 -97 -10 -101 -5 -3 -9 37 -9
95 0 60 4 101 10 101 6 0 10 -38 9 -95z m-219 -3 c0 -30 -8 -45 -20 -37 -9 6
0 65 11 65 5 0 9 -13 9 -28z m6217 -28 c-3 -3 -12 -4 -19 -1 -8 3 -5 6 6 6 11
1 17 -2 13 -5z m-6217 -127 c0 -18 -3 -43 -7 -56 -10 -37 -19 -2 -15 54 4 50
22 52 22 2z m217 -73 c2 -25 -1 -44 -7 -44 -5 0 -10 23 -10 52 0 61 13 56 17
-8z m-224 -126 l-11 -43 -1 55 c-1 41 2 51 11 42 8 -8 8 -23 1 -54z m-893 2
c0 -22 -4 -40 -10 -40 -11 0 -14 63 -3 73 11 12 13 8 13 -33z m1400 -205 c180
-147 552 -448 660 -535 136 -109 193 -164 211 -205 30 -64 21 -75 -11 -15 -28
51 -65 91 -116 126 -25 17 -10 24 -232 -109 -116 -68 -135 -77 -150 -65 -9 7
-84 82 -167 167 -82 85 -155 159 -161 165 -124 122 -273 263 -323 306 -35 30
-74 65 -87 77 l-24 22 25 63 c13 35 39 104 56 155 l31 92 67 -59 c36 -32 136
-116 221 -185z m-1400 20 c0 -49 4 -85 10 -85 6 0 6 -9 0 -26 -14 -36 -14 -36
22 -29 24 6 30 4 25 -6 -3 -8 -8 -22 -12 -31 -5 -12 -2 -18 6 -19 8 0 5 -4 -6
-8 -12 -5 -26 -4 -34 3 -15 12 -14 9 9 -37 21 -42 -1 -58 -32 -22 l-24 27 -17
-26 c-10 -14 -22 -26 -27 -26 -16 0 -11 42 7 62 15 17 14 18 -33 19 -41 1 -44
2 -19 8 29 6 29 7 7 13 -36 10 -25 43 14 43 30 0 31 1 26 37 -5 43 8 50 31 17
15 -20 15 -20 27 16 7 23 9 58 5 95 -5 41 -4 60 4 60 7 0 11 -30 11 -85z m900
-5 c0 -27 -4 -50 -10 -50 -5 0 -10 23 -10 50 0 28 5 50 10 50 6 0 10 -22 10
-50z m6208 -107 c-5 -26 -35 -28 -43 -4 -9 29 14 53 33 34 7 -7 12 -21 10 -30z
m1178 16 c10 -17 -13 -36 -27 -22 -12 12 -4 33 11 33 5 0 12 -5 16 -11z
m-7386 -43 c0 -19 -4 -38 -10 -41 -6 -4 -10 10 -10 34 0 23 5 41 10 41 6 0 10
-15 10 -34z m6495 13 c9 -28 -16 -53 -43 -45 -44 14 -33 66 14 66 14 0 25 -8
29 -21z m339 -11 c20 -33 -31 -60 -78 -42 -22 8 -21 51 2 57 30 8 65 1 76 -15z
m306 12 c20 -12 2 -44 -27 -48 -24 -4 -38 25 -22 44 13 16 28 17 49 4z m-6800
-258 c200 -201 381 -392 479 -504 29 -33 39 -38 80 -39 42 0 105 -17 72 -18
-8 -1 -11 -4 -8 -7 4 -4 14 -1 24 7 9 8 14 9 10 3 -4 -7 0 -14 8 -18 8 -3 17
-1 20 4 4 6 15 4 28 -4 12 -8 40 -17 62 -20 22 -3 51 -8 65 -11 14 -3 39 -8
55 -10 17 -3 53 -12 82 -20 49 -14 53 -18 72 -68 11 -28 54 -142 96 -252 43
-110 97 -257 121 -326 54 -159 104 -291 115 -305 6 -7 22 -9 47 -4 95 19 148
33 155 40 4 4 -1 31 -12 61 -11 30 -47 131 -80 224 -33 94 -79 222 -102 285
-120 331 -138 388 -126 403 7 7 53 33 103 56 81 38 98 43 151 39 l61 -3 -50
54 c-27 30 -67 81 -89 113 -23 33 -47 62 -54 64 -7 3 -40 -7 -72 -23 -45 -22
-66 -40 -96 -83 -50 -74 -115 -204 -132 -265 l-13 -50 -1 47 c-1 53 44 209
114 398 25 68 48 127 52 132 3 5 15 1 27 -10 11 -11 41 -30 66 -43 64 -32 221
-124 315 -183 256 -163 376 -293 475 -513 44 -100 103 -277 114 -348 19 -114
25 -188 27 -315 1 -80 5 -174 10 -210 4 -36 11 -90 14 -120 4 -30 8 -57 10
-60 2 -3 6 -30 9 -60 4 -30 9 -66 11 -80 19 -112 17 -124 -31 -133 l-32 -6 1
92 c1 51 -4 115 -11 142 -7 28 -17 91 -21 140 -8 81 -8 84 -10 30 0 -33 -5
-76 -11 -95 -5 -19 -14 -102 -20 -185 -5 -82 -15 -190 -20 -240 -14 -134 -20
-262 -12 -249 7 12 137 54 166 54 13 0 16 -10 16 -51 0 -46 -4 -55 -34 -83
-44 -40 -133 -85 -175 -88 -18 -1 -35 -6 -37 -10 -3 -5 -10 -6 -15 -3 -5 4 -9
1 -9 -4 0 -6 -5 -11 -11 -11 -5 0 -8 4 -5 9 3 5 0 11 -8 14 -9 4 -12 0 -9 -12
3 -14 -3 -20 -29 -26 -18 -5 -37 -9 -43 -9 -5 -1 -13 -5 -17 -11 -8 -11 -11 5
-8 43 1 12 -3 22 -9 22 -6 0 -11 -5 -11 -12 0 -9 -3 -9 -12 0 -17 17 -38 15
-38 -3 0 -10 10 -15 28 -15 20 0 28 -5 29 -20 2 -23 -24 -33 -83 -32 -33 1
-42 -2 -38 -13 6 -15 -23 -14 -49 1 -8 5 -8 2 2 -9 12 -15 11 -16 -18 -11 -26
5 -31 3 -31 -12 0 -12 -3 -15 -8 -8 -11 16 -112 15 -112 -1 0 -14 -37 -31 -55
-26 -5 1 -15 -6 -22 -15 -8 -11 -13 -13 -13 -5 0 9 -5 8 -16 -3 -8 -9 -23 -16
-32 -17 -9 0 -26 -3 -37 -6 -52 -12 -96 -13 -90 -1 3 7 -2 3 -11 -9 -9 -13
-21 -23 -26 -23 -6 0 -6 6 1 14 7 8 8 17 3 20 -5 3 -14 -5 -19 -17 -7 -16 -26
-27 -62 -36 -29 -7 -54 -11 -57 -8 -3 2 14 96 36 207 37 185 63 317 76 395 3
17 9 44 14 60 5 17 16 66 24 110 8 44 24 118 35 164 11 47 18 87 16 89 -3 3
-8 -4 -11 -14 -12 -32 -239 -600 -294 -734 -28 -68 -54 -127 -58 -130 -4 -3
-7 -11 -8 -17 -3 -33 -5 -36 -19 -17 -17 22 -20 12 -5 -17 7 -13 7 -19 0 -19
-5 0 -10 7 -10 15 0 8 -9 15 -20 15 -13 0 -20 7 -20 20 0 17 -7 20 -40 20 -22
0 -40 -4 -40 -10 0 -5 -18 -10 -39 -10 -22 0 -41 -5 -44 -12 -3 -9 -11 -5 -26
11 -14 17 -21 19 -21 9 0 -8 -7 -15 -15 -15 -12 0 -12 5 3 29 9 15 20 28 24
28 4 0 7 6 6 13 -2 7 5 11 17 9 15 -2 17 -1 6 7 -11 7 -8 20 19 67 18 33 41
70 50 84 10 14 39 66 65 115 27 50 56 101 65 115 9 14 20 31 25 39 11 19 -189
-189 -316 -329 -167 -184 -162 -179 -150 -150 5 14 19 57 30 95 115 396 162
540 276 838 l34 88 -72 -64 c-40 -36 -126 -108 -192 -162 -66 -53 -143 -118
-170 -143 -28 -26 -62 -57 -76 -70 l-26 -23 7 43 c4 24 17 97 28 163 12 66 26
152 32 190 5 39 12 81 15 95 7 29 12 55 19 90 11 60 40 195 67 315 16 72 29
135 29 140 0 17 -40 -59 -149 -285 -58 -118 -110 -224 -118 -235 -11 -16 -12
0 -5 105 4 69 7 231 7 360 -1 242 -11 339 -52 490 -18 65 -18 65 -16 -300 2
-342 -2 -389 -22 -278 -35 186 -138 430 -244 576 -97 133 -250 249 -391 296
-204 68 -387 34 -523 -96 l-52 -50 50 41 c71 57 207 101 311 101 202 0 473
-165 605 -367 62 -96 131 -262 169 -407 24 -94 31 -146 35 -255 4 -119 3 -132
-8 -101 -54 148 -247 498 -350 635 -40 55 -43 52 -13 -10 276 -572 345 -730
350 -805 1 -14 6 -31 10 -39 7 -10 5 -12 -5 -7 -8 4 -7 1 2 -6 13 -10 14 -16
4 -25 -9 -9 -18 -2 -35 30 -13 23 -31 53 -40 67 -10 14 -50 77 -90 140 -78
124 -218 302 -324 415 l-67 70 47 -75 c122 -196 367 -534 453 -625 28 -30 45
-66 28 -59 -7 2 -26 -2 -42 -10 -16 -8 -33 -12 -38 -9 -6 4 -7 0 -2 -8 4 -8
-67 60 -157 151 -155 156 -391 375 -425 394 -51 28 354 -413 491 -537 103 -91
121 -117 83 -117 -39 0 -107 -32 -105 -48 2 -9 -7 -21 -20 -28 -13 -6 -24 -15
-25 -20 -1 -5 -105 -10 -232 -10 -126 -1 -252 -4 -280 -8 -81 -9 -138 -17
-175 -23 -19 -3 -44 -7 -55 -8 -11 -2 -45 -8 -75 -15 -30 -6 -68 -14 -85 -17
-16 -3 -38 -9 -47 -14 -9 -5 -21 -8 -25 -7 -4 2 -30 -5 -56 -16 -27 -10 -50
-17 -52 -15 -1 2 -17 90 -34 194 -31 184 -64 378 -75 440 -32 178 -34 363 -7
527 55 321 144 470 478 799 161 160 403 370 556 483 40 29 78 61 86 70 7 9 19
16 25 16 6 0 112 -103 236 -228z m-1464 164 c-3 -11 -6 -38 -6 -58 0 -21 -4
-38 -10 -38 -14 0 -12 74 2 88 9 9 9 12 0 12 -7 0 -12 7 -12 15 0 9 6 12 16 8
10 -4 14 -13 10 -27z m7921 18 c-3 -3 -12 -4 -19 -1 -8 3 -5 6 6 6 11 1 17 -2
13 -5z m-730 -10 c-3 -3 -12 -4 -19 -1 -8 3 -5 6 6 6 11 1 17 -2 13 -5z m273
-32 c0 -20 -30 -26 -47 -9 -13 13 -14 19 -4 31 10 12 16 13 32 3 10 -6 19 -18
19 -25z m926 -11 c-22 -21 -46 0 -26 24 10 12 16 13 27 3 12 -10 12 -13 -1
-27z m-625 9 c25 -14 24 -46 -2 -60 -16 -9 -26 -8 -45 5 -30 19 -31 39 -1 53
28 14 25 14 48 2z m353 -16 c7 -18 -19 -54 -39 -54 -6 0 -19 6 -29 13 -15 11
-17 17 -7 35 14 27 66 30 75 6z m-7894 -104 c0 -46 -3 -61 -10 -50 -5 8 -10
44 -10 80 0 46 3 61 10 50 5 -8 10 -44 10 -80z m7370 -10 c0 -13 -26 -19 -41
-9 -12 8 -12 10 0 18 15 10 41 4 41 -9z m673 14 c11 -12 -13 -43 -28 -38 -11
5 -12 11 -4 25 10 20 21 24 32 13z m-4827 -63 c5 -30 12 -41 27 -43 30 -4 32
-26 4 -33 -19 -5 -27 -16 -31 -41 -8 -38 -26 -46 -26 -11 0 31 -10 43 -43 51
-34 8 -31 30 5 34 22 3 28 10 33 43 9 50 23 50 31 0z m4507 25 c12 -31 -49
-50 -72 -23 -8 10 -7 17 1 25 16 16 65 15 71 -2z m-7953 -46 c0 -27 -4 -50
-10 -50 -5 0 -10 23 -10 50 0 28 5 50 10 50 6 0 10 -22 10 -50z m230 -67 c0
-42 -3 -54 -11 -46 -11 11 -5 103 7 103 2 0 4 -26 4 -57z m6502 0 c4 -65 2
-688 -2 -715 -3 -13 -13 -18 -37 -18 l-33 0 0 163 c-1 89 0 242 0 340 l1 177
-78 2 -78 2 79 3 79 4 -6 49 -6 50 39 0 38 0 4 -57z m1026 30 c2 -8 -6 -13
-22 -13 -17 0 -26 5 -26 16 0 19 41 16 48 -3z m362 3 c0 -7 -11 -16 -25 -18
-19 -4 -25 -1 -25 13 0 14 7 19 25 19 15 0 25 -6 25 -14z m-8112 -108 c-4 -46
-28 -49 -28 -4 0 26 4 36 16 36 11 0 14 -8 12 -32z m4342 22 c0 -5 -2 -10 -4
-10 -3 0 -8 5 -11 10 -3 6 -1 10 4 10 6 0 11 -4 11 -10z m3263 -7 c-7 -2 -19
-2 -25 0 -7 3 -2 5 12 5 14 0 19 -2 13 -5z m-7383 -119 c0 -34 -4 -53 -10 -49
-18 11 -12 105 7 105 2 0 3 -25 3 -56z m7250 -98 c0 -162 -9 -258 -23 -249 -6
4 -8 0 -5 -9 5 -11 0 -14 -18 -10 -23 4 -24 2 -26 -49 -1 -30 -4 0 -8 66 -3
66 -4 180 -2 253 l3 132 40 0 39 0 0 -134z m-7480 54 c0 -27 -4 -50 -10 -50
-11 0 -13 42 -4 78 10 35 14 26 14 -28z m6622 -102 c2 -46 0 -110 -3 -143 l-6
-60 -1 53 c-2 51 -3 52 -31 52 -31 0 -49 14 -31 25 5 3 10 40 10 81 l0 74 29
0 30 0 3 -82z m-6392 -28 c0 -27 -4 -50 -10 -50 -11 0 -14 83 -3 93 12 12 13
8 13 -43z m-215 -40 c-4 -19 -3 -30 4 -30 6 0 11 5 11 10 0 6 7 10 15 10 8 0
15 -4 15 -10 0 -5 7 -10 15 -10 9 0 15 -9 15 -25 0 -21 -5 -25 -30 -25 -34 0
-36 -6 -16 -36 9 -12 11 -26 6 -33 -6 -10 -12 -7 -25 13 -22 33 -39 33 -54 -1
-9 -19 -15 -23 -23 -15 -9 9 -8 19 2 39 8 16 16 31 18 36 2 4 -15 7 -37 7 -34
0 -41 3 -41 20 0 16 7 20 38 21 28 0 32 2 17 8 -17 7 -17 9 -3 17 16 9 18 12
18 34 0 6 7 10 15 10 8 0 15 5 15 11 0 6 7 3 16 -5 11 -11 14 -25 9 -46z
m7552 -16 c-3 -3 -12 -4 -19 -1 -8 3 -5 6 6 6 11 1 17 -2 13 -5z m-1530 -21
c-11 -3 -16 -11 -13 -19 3 -8 1 -14 -4 -14 -6 0 -10 9 -10 20 0 14 6 20 23 19
18 -1 18 -2 4 -6z m-5803 -95 c4 -37 2 -58 -4 -58 -6 0 -10 27 -10 62 0 74 5
73 14 -4z m5686 12 c0 -5 -2 -10 -4 -10 -3 0 -8 5 -11 10 -3 6 -1 10 4 10 6 0
11 -4 11 -10z m1757 -22 c-3 -7 -5 -2 -5 12 0 14 2 19 5 13 2 -7 2 -19 0 -25z
m-1827 -12 c0 -3 -4 -8 -10 -11 -5 -3 -10 -1 -10 4 0 6 5 11 10 11 6 0 10 -2
10 -4z m-5850 -66 c0 -27 -3 -50 -7 -50 -5 0 -6 22 -5 50 5 65 12 65 12 0z
m2713 -12 c26 -35 35 -119 14 -137 -27 -22 -57 -3 -83 52 -42 92 13 161 69 85z
m4754 -85 c-2 -16 -4 -5 -4 22 0 28 2 40 4 28 2 -13 2 -35 0 -50z m-2052 -52
c3 -5 1 -12 -5 -16 -5 -3 -10 1 -10 9 0 18 6 21 15 7z m1412 -163 c-2 -24 -4
-5 -4 42 0 47 2 66 4 43 2 -24 2 -62 0 -85z m-1755 20 c56 -16 114 -85 123
-144 15 -102 -66 -184 -182 -184 -62 0 -93 15 -135 65 -66 80 -18 222 88 260
49 18 57 18 106 3z m-542 -18 c55 -28 81 -70 87 -139 7 -73 -12 -112 -75 -152
-117 -74 -262 1 -262 136 0 73 46 144 110 168 33 12 103 6 140 -13z m1120 0
c119 -61 127 -215 15 -292 -34 -22 -49 -26 -96 -24 -101 5 -159 57 -167 149
-11 137 125 230 248 167z m2220 -99 l0 -79 -102 -7 c-57 -3 -128 -4 -158 -1
-30 2 -85 5 -122 5 l-68 1 1 73 c1 39 3 75 6 80 2 4 103 7 224 7 l219 0 0 -79z
m-675 60 c3 -6 -3 -18 -13 -28 -11 -10 -97 -115 -193 -233 -95 -118 -221 -271
-280 -340 -192 -224 -258 -303 -342 -407 -66 -82 -86 -101 -102 -97 -11 3 -26
6 -32 6 -18 2 -18 1 26 49 29 32 37 48 31 60 -6 10 -5 21 3 29 10 12 9 12 -5
1 -10 -7 -18 -19 -18 -25 0 -30 -39 -36 -202 -31 -154 6 -161 5 -123 -9 24
-10 74 -16 125 -16 47 0 92 -5 100 -10 11 -7 -3 -10 -45 -10 -84 0 -100 -7
-131 -51 -22 -32 -26 -45 -20 -79 7 -43 2 -48 -30 -26 -37 26 -86 29 -121 6
-18 -11 -33 -24 -33 -30 0 -19 -52 -90 -66 -90 -8 0 -14 4 -14 10 0 5 -7 7
-15 4 -18 -7 -18 -4 -5 33 l11 28 -25 -30 c-14 -16 -25 -25 -26 -19 0 5 6 16
13 24 7 9 4 8 -8 -2 -15 -12 -35 -14 -83 -11 -44 3 -76 0 -103 -11 -21 -9 -39
-12 -39 -7 0 5 26 44 59 87 38 52 54 82 47 86 -7 5 -5 8 5 8 9 0 34 19 55 43
l38 42 106 6 c82 4 98 7 73 13 -18 5 -33 12 -33 17 0 5 -10 9 -22 8 -22 0 -22
-1 -3 -9 13 -6 -7 -9 -62 -9 l-81 -1 -49 -59 c-26 -32 -64 -78 -83 -102 -67
-82 -153 -179 -160 -179 -4 0 -15 9 -25 20 -17 19 -17 21 21 67 21 27 66 80
100 118 33 39 67 79 76 90 59 72 469 561 512 610 28 33 77 92 109 131 74 95
226 267 240 275 7 3 118 12 248 19 130 7 294 18 365 25 163 16 221 17 229 6z
m55 -67 c0 -24 -19 -53 -88 -135 -48 -57 -98 -118 -112 -135 -154 -193 -492
-599 -511 -614 -4 -3 -46 -54 -94 -115 -48 -60 -90 -111 -94 -113 -4 -1 -17 8
-29 20 l-21 23 56 70 c30 39 81 99 112 135 56 64 260 307 473 566 58 71 148
180 199 242 95 115 109 122 109 56z m-4372 -24 c44 -42 16 -127 -37 -113 -31
8 -55 71 -41 108 12 31 47 33 78 5z m4689 -297 c-2 -21 -4 -6 -4 32 0 39 2 55
4 38 2 -18 2 -50 0 -70z m318 -48 c30 -29 31 -45 4 -79 -23 -30 -78 -36 -99
-11 -11 13 -68 15 -406 15 -411 0 -415 0 -377 42 15 17 40 18 390 18 360 0
374 1 393 20 27 27 66 25 95 -5z m-2090 -245 c-3 -5 -11 -10 -16 -10 -6 0 -7
5 -4 10 3 6 11 10 16 10 6 0 7 -4 4 -10z m-4220 -161 c11 -16 1 -19 -13 -3 -7
8 -8 14 -3 14 5 0 13 -5 16 -11z m3309 -44 c139 -72 168 -88 184 -102 7 -7 17
-13 22 -13 20 0 90 -80 90 -103 0 -26 -23 -51 -56 -61 -22 -7 -40 4 -173 106
-33 25 -82 54 -107 64 -40 15 -53 16 -108 5 -34 -7 -82 -10 -107 -7 -24 2 -69
1 -99 -3 -40 -6 -47 -9 -25 -11 47 -4 227 0 257 6 50 10 125 -35 224 -135 81
-81 94 -99 108 -150 9 -31 16 -72 16 -89 0 -24 5 -32 18 -33 13 0 12 -2 -5 -9
-13 -5 -23 -14 -23 -19 0 -6 -18 -20 -40 -31 l-40 -20 0 40 c0 23 -7 55 -16
73 -27 51 -99 141 -137 170 -35 26 -39 27 -214 31 -98 2 -189 7 -203 11 -18 5
-21 4 -11 -3 11 -8 10 -11 -5 -15 -24 -6 -9 -7 216 -13 200 -6 188 -1 265
-109 75 -106 86 -136 79 -211 -5 -49 -13 -74 -32 -96 -28 -33 -42 -25 -42 25
0 34 -16 66 -76 152 l-46 66 -180 -2 c-132 -1 -176 -5 -168 -13 7 -7 72 -12
174 -14 l163 -4 47 -82 c59 -106 65 -135 35 -170 -12 -14 -31 -26 -42 -26 -34
0 -76 33 -88 68 -8 25 -15 32 -28 27 -9 -4 -43 -9 -76 -12 -47 -5 -67 -12 -94
-35 -18 -16 -43 -34 -55 -40 -11 -5 -32 -32 -45 -59 -66 -141 -282 -302 -447
-335 -101 -20 -239 -83 -544 -248 -248 -135 -288 -155 -491 -249 -360 -166
-569 -242 -892 -323 -100 -25 -189 -47 -197 -49 -8 -2 -33 -8 -55 -13 -159
-42 -503 -100 -635 -108 -95 -6 -95 -6 -137 26 -49 36 -143 157 -205 263 -157
269 -388 816 -502 1194 -6 19 -1 23 46 36 154 43 278 64 413 71 11 1 26 5 33
9 7 5 35 6 63 2 33 -5 54 -3 64 5 13 11 170 9 327 -4 212 -18 279 -28 330 -49
l35 -15 -8 -53 c-5 -30 -11 -70 -14 -89 -11 -69 -31 -135 -42 -135 -6 0 -15
-3 -19 -7 -4 -5 -15 -8 -23 -8 -29 0 -165 -87 -213 -136 -54 -55 -113 -160
-123 -219 l-7 -40 22 35 c65 103 182 196 293 233 121 40 242 36 567 -17 52 -9
118 -18 145 -21 28 -3 69 -8 91 -11 35 -4 89 1 204 21 28 5 129 25 145 29 6 1
26 6 45 10 19 4 64 14 99 23 36 8 72 16 80 18 162 32 694 191 811 242 50 22
140 96 140 115 0 4 50 81 111 170 61 90 148 219 194 288 46 69 92 134 104 144
15 13 46 21 108 28 49 5 153 21 233 37 80 15 156 27 169 28 13 0 69 -23 125
-52z m-3409 5 c3 -5 1 -10 -4 -10 -6 0 -11 5 -11 10 0 6 2 10 4 10 3 0 8 -4
11 -10z m5992 -54 c62 -32 103 -103 103 -179 0 -55 -41 -139 -84 -171 -95 -73
-252 -49 -313 47 -50 78 -42 184 19 257 60 72 185 93 275 46z m-5942 -76 c10
-11 16 -20 13 -20 -3 0 -13 9 -23 20 -10 11 -16 20 -13 20 3 0 13 -9 23 -20z
m46 -37 c13 -16 12 -17 -3 -4 -17 13 -22 21 -14 21 2 0 10 -8 17 -17z m4040 4
c-6 -8 -7 -18 -3 -22 4 -5 1 -5 -6 -1 -10 6 -10 11 -1 22 6 8 14 14 16 14 3 0
0 -6 -6 -13z m980 -7 c14 0 11 -69 -6 -135 -18 -67 -72 -185 -85 -185 -5 0
-21 24 -35 53 -33 65 -29 102 20 186 43 73 63 94 82 87 8 -3 19 -6 24 -6z
m-374 -16 c-3 -3 -12 -4 -19 -1 -8 3 -5 6 6 6 11 1 17 -2 13 -5z m-637 -28 c0
-2 -8 -10 -17 -17 -16 -13 -17 -12 -4 4 13 16 21 21 21 13z m571 -17 c125 -41
228 -143 322 -323 l26 -49 -21 -41 c-26 -51 -146 -206 -160 -206 -6 0 -7 8 -3
18 13 33 26 137 21 164 -8 40 -131 213 -179 251 -23 18 -58 40 -78 49 -22 10
-43 30 -53 48 -14 28 -14 35 -1 60 21 41 60 50 126 29z m-2350 -12 c0 -7 2
-19 3 -27 2 -8 6 -35 10 -60 3 -25 10 -62 15 -83 10 -41 7 -46 -45 -57 -25 -6
-34 -4 -38 7 -9 23 -7 30 4 13 14 -21 13 -4 -5 99 -13 74 -13 86 0 100 17 20
55 25 56 8z m-2401 -43 c47 -9 93 -16 103 -16 9 1 15 -3 12 -7 -2 -5 7 -7 21
-5 16 1 24 -2 21 -9 -2 -7 -11 -11 -19 -9 -11 2 -14 -4 -10 -23 2 -14 8 -25
13 -25 5 0 9 -9 9 -20 0 -11 -4 -20 -10 -20 -5 0 -10 -17 -10 -37 0 -21 -5
-45 -10 -53 -6 -10 -10 -11 -10 -2 0 6 -5 12 -10 12 -7 0 -7 -6 0 -20 8 -15 7
-19 -2 -15 -29 9 -383 36 -412 31 -17 -3 -81 -6 -141 -7 -61 -1 -133 -5 -160
-9 -28 -4 -72 -11 -100 -14 -27 -3 -62 -8 -77 -11 -16 -3 -38 -7 -51 -9 -53
-9 -245 -59 -274 -71 -18 -8 -33 -11 -34 -7 0 4 -2 18 -4 32 -3 14 -7 43 -10
65 -4 22 -9 58 -12 80 -12 81 -17 75 92 106 94 26 216 50 330 65 28 4 77 10
110 14 104 14 549 3 645 -16z m5585 -49 c0 -14 -7 -20 -22 -21 -18 -1 -23 4
-23 23 0 20 4 24 23 21 14 -2 22 -10 22 -23z m-965 -75 c56 -17 81 -30 100
-54 14 -17 32 -38 41 -47 23 -23 116 -146 129 -168 8 -16 -7 -164 -36 -339 -4
-26 -16 -40 -60 -68 -29 -19 -54 -38 -54 -43 0 -5 -12 -12 -27 -16 -16 -3 -35
-13 -44 -21 -50 -45 -505 -251 -574 -259 -92 -12 -108 -16 -134 -34 -14 -10
-31 -21 -37 -24 -18 -10 -134 158 -164 239 -11 29 -17 29 85 9 11 -2 36 -6 55
-9 19 -3 64 -10 98 -17 77 -14 147 -7 201 20 39 20 191 182 191 204 0 6 16
-11 36 -36 20 -26 38 -47 40 -47 2 0 8 19 14 42 7 23 25 70 41 104 l30 63 -23
38 c-13 21 -34 60 -48 86 -14 26 -35 55 -47 63 -13 8 -23 21 -23 28 0 7 -9 25
-20 39 -23 29 -26 75 -6 102 13 19 16 19 68 2 30 -9 66 -29 81 -44 54 -57 157
-196 163 -220 4 -14 -1 -80 -10 -147 -24 -166 -26 -186 -17 -186 10 0 36 120
56 259 13 91 14 107 1 126 -8 12 -46 66 -85 120 -60 82 -80 102 -121 121 -91
42 -122 97 -80 142 19 20 23 20 62 8 24 -7 77 -23 118 -36z m-835 -70 c3 -6
-1 -7 -9 -4 -18 7 -21 14 -7 14 6 0 13 -4 16 -10z m586 -12 c-8 -23 -9 -23
-200 -19 -142 2 -191 0 -191 -8 0 -7 -4 -10 -9 -7 -5 3 -7 14 -4 25 4 17 16
18 194 13 138 -3 189 -2 189 7 0 6 7 11 15 11 11 0 12 -6 6 -22z m-504 -30 c8
-10 -33 -64 -168 -223 -98 -115 -177 -210 -176 -211 1 -1 106 -7 232 -13 127
-6 271 -14 321 -18 l91 -6 84 106 c46 58 93 120 105 137 l21 31 15 -23 c15
-23 13 -27 -44 -98 -201 -255 -254 -306 -330 -324 -15 -3 -149 5 -297 19 -149
14 -291 25 -315 25 -45 0 -73 19 -63 43 6 16 135 170 333 397 69 80 130 155
135 168 7 18 12 21 27 13 10 -5 23 -16 29 -23z m-5727 -23 c-7 -8 -17 -15 -23
-15 -5 0 -2 9 8 20 21 23 35 19 15 -5z m2027 -1 c-3 -3 -12 -4 -19 -1 -8 3 -5
6 6 6 11 1 17 -2 13 -5z m4159 -11 c9 -3 10 -12 3 -30 -5 -13 -9 -35 -9 -49 0
-13 -9 -32 -20 -41 -11 -10 -20 -23 -20 -30 0 -21 -10 -16 -60 31 -37 35 -57
45 -96 51 -35 5 -60 16 -89 41 l-40 34 159 -1 c88 0 165 -3 172 -6z m-358 -51
c28 -26 52 -52 52 -59 0 -6 4 -13 9 -15 4 -1 20 -22 34 -45 l26 -41 -34 -46
-35 -45 -187 0 c-145 -1 -184 2 -175 11 8 8 45 12 115 10 71 -2 97 1 87 8 -8
5 -53 10 -100 10 -59 0 -80 3 -70 10 21 13 200 13 200 -1 0 -19 18 1 22 26 5
23 -6 36 -14 16 -1 -5 -43 -12 -92 -16 -71 -5 -87 -4 -84 7 3 7 19 14 36 16
18 2 30 7 27 12 -3 5 -12 7 -20 3 -19 -7 -20 13 -2 24 8 4 40 43 71 86 32 42
64 77 70 77 6 0 35 -21 64 -48z m225 -79 c42 -33 82 -81 73 -90 -3 -4 -35 21
-70 55 -66 64 -68 83 -3 35z m1522 -3 c47 -52 -10 -137 -75 -110 -24 10 -50
46 -50 69 0 5 9 20 21 35 25 32 77 36 104 6z m-1485 -127 c12 -4 11 -8 -7 -23
-12 -9 -19 -20 -16 -24 4 -3 -31 -6 -76 -6 l-83 0 31 38 30 39 53 -10 c29 -5
60 -12 68 -14z m218 15 c28 -28 8 -63 -127 -228 -111 -136 -159 -176 -216
-180 -66 -5 -75 9 -21 28 43 16 114 92 241 260 55 73 102 132 105 132 4 0 11
-5 18 -12z m-483 -109 c110 -6 202 -13 204 -15 13 -12 -22 -13 -170 -4 -90 5
-217 10 -281 10 -65 0 -118 4 -118 8 0 20 19 24 90 18 41 -3 165 -11 275 -17z
m558 -19 c-3 -12 -8 -19 -11 -16 -5 6 5 36 12 36 2 0 2 -9 -1 -20z m-5593
-350 c0 -5 -4 -10 -9 -10 -5 0 -24 -2 -42 -5 l-34 -6 35 14 c45 18 50 19 50 7z
m7276 -170 c54 0 271 -75 348 -120 37 -22 70 -40 73 -40 2 0 34 -21 70 -47
208 -148 359 -368 434 -633 21 -77 24 -104 24 -295 0 -269 -17 -343 -121 -538
-58 -108 -86 -147 -60 -83 9 21 16 40 16 42 0 2 -18 -6 -40 -17 -22 -12 -40
-24 -40 -28 0 -4 -16 -26 -36 -49 -23 -27 -30 -42 -21 -42 8 0 17 -11 20 -25
2 -14 2 -23 -1 -20 -8 8 -52 -37 -46 -47 3 -5 1 -7 -4 -6 -5 2 -32 -18 -60
-45 -28 -26 -53 -47 -56 -47 -3 0 -1 12 5 26 12 32 7 38 -23 31 -26 -7 -128
-93 -128 -109 0 -6 12 -8 30 -4 17 3 29 2 25 -3 -8 -14 -237 -108 -276 -114
-19 -3 -58 -11 -88 -17 -88 -20 -367 -9 -471 19 -47 13 -98 29 -115 37 -16 7
-61 27 -100 43 -38 16 -71 35 -73 41 -3 8 3 10 18 5 l23 -7 -22 31 c-23 32
-121 90 -121 71 0 -6 8 -23 17 -38 13 -21 3 -15 -42 23 -33 27 -65 54 -71 60
-6 5 -23 19 -37 30 -29 21 -35 41 -15 47 7 3 -1 22 -22 54 -57 83 -89 106 -91
62 l0 -23 -17 24 c-80 112 -202 423 -170 433 5 2 2 20 -7 41 -20 49 -15 282 8
377 43 172 119 331 219 455 70 87 95 113 169 180 72 64 254 185 279 185 5 0
37 13 73 29 35 16 89 34 120 41 73 15 316 28 345 18 13 -4 39 -8 58 -8z
m-2199 -87 c-2 -16 -4 -3 -4 27 0 30 2 43 4 28 2 -16 2 -40 0 -55z m-4526
-508 c29 -49 55 -91 59 -93 10 -4 -1 -52 -12 -52 -10 0 -3 -185 8 -243 7 -34
-10 -57 -36 -50 -15 4 -20 17 -25 62 -10 90 -14 101 -35 101 -11 0 -20 5 -20
11 0 6 9 8 20 4 24 -8 24 -8 5 80 -8 39 -22 117 -30 175 -9 58 -18 114 -21
125 -9 34 31 -20 87 -120z m3109 -120 c0 -70 -4 -115 -10 -115 -6 0 -10 43
-10 108 0 95 4 122 17 122 2 0 3 -52 3 -115z m-2250 -437 c8 0 40 -4 70 -8 30
-5 84 -11 120 -14 72 -5 386 -33 493 -44 l68 -7 2 -164 3 -164 -86 8 c-47 4
-109 9 -137 11 -29 2 -97 8 -150 14 -54 6 -172 17 -263 25 -91 8 -200 17 -242
21 l-78 7 0 165 0 165 93 -8 c50 -4 99 -7 107 -7z m1902 -195 c-3 -198 -5
-212 -39 -213 -10 0 -13 45 -13 191 0 171 2 193 18 205 9 7 22 14 27 14 6 0 9
-70 7 -197z m-92 -43 c0 -144 -3 -192 -12 -195 -34 -12 -329 -55 -338 -50 -3
2 -4 90 -2 197 l3 194 112 13 c62 7 128 16 147 21 19 4 47 8 63 9 l27 1 0
-190z m-665 144 l160 -7 -3 -173 c-3 -158 -5 -174 -20 -174 -10 0 -72 7 -137
15 -66 8 -141 15 -167 15 -81 0 -78 -7 -78 169 0 87 3 161 8 165 4 4 23 5 42
2 19 -3 107 -9 195 -12z m2952 -70 c-3 -3 -12 -4 -19 -1 -8 3 -5 6 6 6 11 1
17 -2 13 -5z m80 -10 c-3 -3 -12 -4 -19 -1 -8 3 -5 6 6 6 11 1 17 -2 13 -5z
m-67 -51 c0 -5 -11 -13 -25 -20 -28 -13 -34 1 -7 16 21 12 32 14 32 4z m19
-47 c10 -12 8 -13 -8 -9 -12 3 -18 9 -15 14 7 12 10 11 23 -5z m101 -35 c0 -5
-9 -7 -20 -4 -11 3 -20 7 -20 9 0 2 9 4 20 4 11 0 20 -4 20 -9z m-4695 -16
c98 -10 105 -13 105 -40 0 -31 2 -31 88 -40 71 -7 72 -7 72 17 0 21 4 24 33
21 17 -1 104 -10 192 -18 88 -8 187 -18 220 -20 33 -3 71 -7 85 -10 14 -2 79
-7 145 -11 66 -3 122 -8 123 -9 15 -14 -209 -521 -351 -797 l-60 -118 -46 0
c-56 0 -71 12 -71 57 0 18 -4 33 -10 33 -5 0 -10 7 -10 15 0 26 -23 65 -42 70
-10 4 -18 14 -18 24 0 11 -15 25 -40 36 -22 10 -40 24 -40 32 0 7 -9 13 -20
13 -11 0 -20 5 -20 10 0 6 -9 10 -20 10 -11 0 -20 7 -20 15 0 8 -9 15 -20 15
-13 0 -20 7 -20 20 0 11 -4 20 -10 20 -5 0 -10 9 -10 20 0 13 -7 20 -20 20
-12 0 -20 7 -20 16 0 22 -20 39 -65 54 -37 13 -38 14 -15 20 24 6 24 6 -8 19
-18 7 -29 18 -25 24 4 6 0 8 -11 4 -10 -4 -15 -3 -11 3 3 6 -2 11 -12 11 -17
1 -17 2 0 6 21 5 22 17 2 37 -8 8 -15 24 -15 36 0 12 -6 28 -14 36 -8 7 -17
32 -21 54 -5 30 -11 40 -26 40 -16 0 -19 7 -19 40 0 33 -3 40 -20 40 -17 0
-20 7 -20 49 0 27 -4 51 -9 53 -5 2 -11 19 -12 38 -2 19 -8 38 -13 42 -5 3 6
5 25 3 19 -2 61 -6 94 -10z m3650 -170 c14 -13 25 -33 25 -45 0 -28 -44 -70
-73 -70 -64 0 -95 84 -45 122 32 25 65 22 93 -7z m-383 -145 c2 -19 10 -26 31
-28 35 -4 35 -30 0 -34 -24 -3 -29 -9 -37 -48 -9 -47 -17 -42 -30 22 -4 19
-13 28 -31 30 -31 4 -34 22 -5 26 12 2 26 17 35 39 16 39 31 36 37 -7z"/>
<path d="M2520 9744 c-58 -37 -69 -53 -62 -91 l4 -23 67 37 c36 20 76 47 89
59 l24 21 -23 17 c-31 22 -36 21 -99 -20z"/>
<path d="M2418 9614 c-16 -8 -28 -17 -28 -19 0 -10 16 -4 40 15 30 23 25 25
-12 4z"/>
<path d="M3012 8169 c-39 -15 -62 -58 -62 -118 l1 -56 15 35 c31 72 76 90 128
49 31 -25 34 -49 5 -49 -31 0 -57 -17 -74 -50 -21 -41 -19 -73 8 -97 27 -25
137 -87 142 -81 3 2 0 20 -5 39 -11 36 -4 105 11 115 5 3 9 20 9 38 0 100
-104 202 -178 175z"/>
<path d="M6379 7754 c-114 -24 -142 -38 -162 -75 -16 -31 -17 -31 -12 -7 5 26
4 27 -20 18 -89 -34 -192 -107 -274 -193 -27 -29 -70 -74 -96 -102 -68 -72
-180 -314 -156 -338 4 -4 2 -34 -5 -65 -25 -104 -13 -262 28 -392 41 -128 143
-318 193 -360 15 -13 20 -11 40 14 l23 29 -29 46 c-21 32 -36 45 -52 45 -12 0
-30 7 -39 15 -15 13 -16 16 -1 26 9 7 13 17 10 22 -4 6 0 13 8 17 8 3 17 1 20
-4 4 -6 14 -5 25 2 31 19 48 -4 21 -29 l-20 -18 27 -43 c15 -23 33 -44 41 -47
9 -4 32 12 59 38 l44 44 -55 74 c-79 108 -103 168 -130 329 -12 68 -11 85 9
187 26 135 71 229 150 320 151 172 332 253 555 247 46 -1 113 -9 149 -18 83
-21 213 -84 266 -130 l42 -36 18 28 c10 15 40 49 68 76 l51 49 -60 53 c-33 30
-63 54 -67 54 -3 0 -13 6 -20 13 -7 7 -29 20 -48 29 -33 16 -35 16 -42 0 -16
-42 -9 -61 33 -82 23 -12 39 -24 36 -26 -3 -3 -25 7 -49 22 -23 15 -44 26 -45
23 -1 -2 -5 -1 -9 4 -4 4 -2 7 4 7 7 0 12 16 12 38 0 35 -3 40 -37 55 -59 25
-161 48 -242 55 l-74 5 7 -33 c3 -19 12 -37 19 -42 9 -5 9 -10 1 -18 -7 -7
-10 -27 -7 -45 5 -35 -6 -49 -30 -39 -12 4 -15 21 -12 79 2 41 6 78 10 84 9
16 -95 13 -176 -5z m139 -72 c2 -7 -10 -10 -36 -9 -48 1 -105 -39 -91 -65 7
-12 4 -14 -16 -10 -14 2 -32 -1 -40 -8 -8 -7 -21 -10 -30 -7 -18 8 -32 -13
-15 -23 8 -5 3 -9 -14 -12 -14 -3 -23 -1 -20 3 3 5 -2 9 -11 9 -10 0 -13 5 -9
12 4 6 3 8 -4 4 -6 -3 -13 -2 -17 4 -3 5 1 10 9 10 22 0 20 15 -2 17 -21 2
-26 -27 -8 -39 8 -6 7 -10 -2 -16 -7 -5 -12 -13 -11 -18 1 -5 1 -16 0 -24 -1
-12 -4 -11 -12 3 -6 9 -8 25 -5 35 3 9 2 23 -3 30 -6 10 -10 10 -21 -3 -7 -8
-19 -15 -26 -15 -8 0 -14 -4 -14 -8 0 -7 -48 -35 -85 -51 -22 -9 44 39 105 76
73 44 148 75 161 67 5 -3 9 0 9 7 0 8 5 8 16 -2 14 -11 18 -10 30 6 8 10 14
16 14 12 0 -4 18 0 40 9 22 9 49 14 60 11 11 -3 20 -1 20 5 0 13 23 5 28 -10z
m155 1 c-7 -2 -19 -2 -25 0 -7 3 -2 5 12 5 14 0 19 -2 13 -5z m368 -140 c13
-16 12 -17 -3 -4 -10 7 -18 15 -18 17 0 8 8 3 21 -13z m-1156 -178 c30 -7 40
-15 40 -30 0 -15 -7 -20 -27 -20 -22 1 -32 -8 -54 -48 -14 -27 -28 -46 -31
-43 -3 2 7 24 21 49 31 52 31 55 10 53 -12 -1 -17 8 -19 31 -1 21 2 30 9 25 6
-4 29 -11 51 -17z m-95 -229 c0 -3 -4 -8 -10 -11 -5 -3 -10 -1 -10 4 0 6 5 11
10 11 6 0 10 -2 10 -4z m-17 -46 c-3 -12 -8 -19 -11 -16 -5 6 5 36 12 36 2 0
2 -9 -1 -20z m-14 -102 c-4 -24 -8 -55 -9 -70 0 -24 4 -28 29 -28 16 0 37 -3
46 -6 25 -10 -2 -24 -47 -24 -31 0 -38 -4 -38 -20 0 -13 -5 -18 -15 -14 -8 4
-15 12 -15 20 0 8 -9 14 -20 14 -30 0 -24 20 10 31 17 6 30 16 31 22 0 7 3 28
5 47 3 19 6 41 6 48 1 6 5 12 10 12 5 0 6 5 2 12 -4 6 -3 8 3 5 7 -4 7 -22 2
-49z m41 -433 c0 -5 -5 -3 -10 5 -5 8 -10 20 -10 25 0 6 5 3 10 -5 5 -8 10
-19 10 -25z m18 -40 c-3 -3 -9 2 -12 12 -6 14 -5 15 5 6 7 -7 10 -15 7 -18z
m16 -31 c3 -8 2 -12 -4 -9 -6 3 -10 10 -10 16 0 14 7 11 14 -7z m91 -194 c3
-5 2 -10 -4 -10 -5 0 -13 5 -16 10 -3 6 -2 10 4 10 5 0 13 -4 16 -10z"/>
<path d="M7144 7420 l-80 -78 48 -63 c62 -82 113 -184 128 -255 19 -88 8 -285
-19 -364 -48 -140 -149 -272 -268 -351 -41 -27 -78 -49 -81 -49 -4 0 -18 -6
-32 -13 -46 -24 -176 -55 -237 -56 l-33 -1 2 -71 2 -71 60 7 c91 10 141 22
226 56 l78 31 -14 34 c-8 18 -14 39 -13 46 0 7 7 -4 16 -24 14 -35 43 -53 43
-27 0 5 4 8 9 5 10 -7 71 25 71 37 0 4 6 7 13 7 6 0 32 25 57 55 25 30 48 55
53 55 4 0 7 9 7 20 0 11 6 19 12 17 7 -1 14 8 16 21 2 12 8 22 13 22 6 0 7 5
4 10 -4 6 4 22 18 36 23 23 47 19 32 -6 -3 -5 1 -10 9 -10 8 0 17 -4 20 -9 8
-12 -17 -58 -29 -54 -6 2 -18 -9 -27 -24 -30 -51 -154 -170 -204 -196 -13 -7
-24 -16 -26 -22 -2 -5 -9 -9 -16 -9 -10 2 -10 -1 0 -14 11 -13 10 -14 -15 -8
-33 8 -67 -8 -67 -32 0 -14 -2 -14 -9 -3 -7 11 -13 12 -23 4 -20 -16 -176 -56
-237 -61 -52 -4 -81 -19 -81 -41 0 -6 -4 -11 -10 -11 -5 0 -10 7 -10 15 0 8
-8 15 -17 16 -17 0 -17 1 0 7 11 5 -22 12 -81 19 -100 12 -232 53 -300 93 -19
12 -37 18 -41 14 -3 -4 0 -9 7 -11 6 -3 12 -12 12 -20 0 -10 -6 -13 -16 -9 -9
3 -17 6 -18 6 -2 0 -1 11 1 24 4 18 -1 27 -17 36 -12 6 -40 28 -61 48 l-40 35
-27 -27 -27 -27 36 -32 c83 -75 119 -105 119 -100 0 3 9 -6 21 -21 11 -14 25
-24 30 -21 5 4 6 -1 3 -10 -5 -13 -9 -13 -22 -3 -12 10 -14 10 -8 1 4 -7 17
-18 28 -24 18 -10 20 -9 15 5 -3 8 -1 18 5 22 7 5 8 2 3 -6 -6 -10 -4 -12 9
-7 13 5 17 3 13 -7 -6 -15 59 -56 86 -56 7 1 -1 7 -18 14 -36 16 -64 56 -40
56 8 0 15 -4 15 -10 0 -5 8 -10 19 -10 10 0 34 -6 53 -14 33 -14 159 -35 228
-37 43 -2 152 9 158 16 3 3 11 0 19 -7 11 -9 13 -8 11 2 -3 15 33 21 43 7 3
-5 12 -2 20 5 8 8 21 17 29 20 17 6 43 -16 32 -27 -4 -4 7 1 23 11 25 15 28
16 17 2 -11 -14 -11 -16 7 -11 12 3 18 9 15 14 -3 5 0 8 8 7 8 -2 14 8 16 25
4 32 18 36 27 7 8 -25 11 -25 58 4 26 16 34 26 25 30 -7 3 -3 3 9 0 25 -6 108
37 117 61 3 8 11 15 19 15 7 0 35 22 61 49 37 37 49 58 51 83 1 19 18 63 38
98 119 212 136 268 144 460 6 165 -11 291 -56 405 -29 76 -104 206 -123 213
-4 2 -8 10 -8 17 0 7 -3 15 -8 17 -4 2 -17 15 -28 30 l-21 27 -79 -79z m156
-84 c0 -1 -5 -17 -11 -34 -14 -39 -48 -49 -72 -21 -17 21 -17 22 0 34 23 16
83 32 83 21z m137 -446 c15 0 23 -5 20 -12 -2 -7 -14 -11 -27 -10 -19 3 -22 0
-17 -17 3 -14 0 -21 -9 -21 -8 0 -14 7 -14 15 0 10 -10 15 -30 15 -20 0 -30
-5 -30 -15 0 -8 -4 -15 -10 -15 -5 0 -10 7 -10 15 0 7 -8 18 -17 24 -16 8 -15
10 7 15 40 9 84 13 98 9 8 -1 25 -3 39 -3z m-127 -530 c0 -5 -5 -10 -11 -10
-5 0 -7 5 -4 10 3 6 8 10 11 10 2 0 4 -4 4 -10z m-340 -264 c0 -2 -8 -10 -17
-17 -16 -13 -17 -12 -4 4 13 16 21 21 21 13z m-860 -20 c0 -3 -4 -8 -10 -11
-5 -3 -10 -1 -10 4 0 6 5 11 10 11 6 0 10 -2 10 -4z m860 -87 c0 -6 -4 -7 -10
-4 -5 3 -10 11 -10 16 0 6 5 7 10 4 6 -3 10 -11 10 -16z"/>
<path d="M7593 7120 c0 -25 2 -35 4 -22 2 12 2 32 0 45 -2 12 -4 2 -4 -23z"/>
<path d="M6504 6948 c-26 -12 -44 -49 -44 -89 0 -22 10 -41 35 -66 30 -30 40
-35 67 -29 95 19 124 148 42 182 -39 16 -70 17 -100 2z m90 -39 c15 -12 26
-30 26 -45 0 -57 -83 -87 -114 -42 -22 32 -20 55 9 83 29 30 45 31 79 4z"/>
<path d="M5421 6844 c0 -11 3 -14 6 -6 3 7 2 16 -1 19 -3 4 -6 -2 -5 -13z"/>
<path d="M7604 6760 c0 -58 1 -81 3 -52 2 28 2 76 0 105 -2 28 -3 5 -3 -53z"/>
<path d="M7522 6660 c0 -14 2 -19 5 -12 2 6 2 18 0 25 -3 6 -5 1 -5 -13z"/>
<path d="M6957 6419 c-15 -18 -30 -29 -33 -26 -4 3 -16 -5 -29 -19 -12 -13
-29 -22 -37 -19 -7 3 -29 -8 -47 -24 -22 -19 -50 -33 -77 -37 -25 -3 -46 -10
-49 -14 -5 -9 0 -8 55 4 45 11 142 60 159 80 8 9 19 16 25 16 7 0 27 16 46 35
19 19 30 35 24 35 -5 0 -22 -14 -37 -31z"/>
<path d="M7446 6423 c-6 -14 -5 -15 5 -6 7 7 10 15 7 18 -3 3 -9 -2 -12 -12z"/>
<path d="M6050 6315 l-45 -46 37 -33 c47 -43 100 -75 116 -69 6 3 12 -1 12 -9
0 -37 178 -98 308 -104 l72 -3 0 69 c0 39 -4 70 -9 70 -85 0 -266 46 -313 81
-15 10 -31 19 -35 19 -4 0 -28 16 -52 35 -24 19 -44 35 -45 35 -1 0 -22 -20
-46 -45z m153 -115 c-3 -11 -9 -18 -13 -15 -5 3 -6 14 -3 25 3 11 9 18 13 15
5 -3 6 -14 3 -25z"/>
<path d="M7380 6291 c0 -6 4 -13 10 -16 6 -3 7 1 4 9 -7 18 -14 21 -14 7z"/>
<path d="M6408 6273 c7 -3 16 -2 19 1 4 3 -2 6 -13 5 -11 0 -14 -3 -6 -6z"/>
<path d="M6633 6263 c9 -2 23 -2 30 0 6 3 -1 5 -18 5 -16 0 -22 -2 -12 -5z"/>
<path d="M6548 6253 c12 -2 30 -2 40 0 9 3 -1 5 -23 4 -22 0 -30 -2 -17 -4z"/>
<path d="M7311 6144 c0 -11 3 -14 6 -6 3 7 2 16 -1 19 -3 4 -6 -2 -5 -13z"/>
<path d="M7234 6099 c-19 -22 -19 -22 3 -10 24 12 39 31 25 31 -5 0 -17 -10
-28 -21z"/>
<path d="M6084 6022 c3 -5 0 -13 -6 -15 -9 -4 -10 -6 -1 -6 17 -1 25 16 12 25
-7 4 -9 3 -5 -4z"/>
<path d="M6911 5931 c-1 -8 -8 -11 -18 -7 -15 5 -14 3 2 -9 20 -16 31 -7 22
18 -4 9 -6 9 -6 -2z"/>
<path d="M6288 5908 c6 -6 18 -8 28 -6 14 3 12 5 -9 10 -19 3 -25 2 -19 -4z"/>
<path d="M6468 5873 c7 -3 16 -2 19 1 4 3 -2 6 -13 5 -11 0 -14 -3 -6 -6z"/>
<path d="M6553 5873 c9 -2 23 -2 30 0 6 3 -1 5 -18 5 -16 0 -22 -2 -12 -5z"/>
<path d="M8003 6415 c0 -22 2 -30 4 -17 2 12 2 30 0 40 -3 9 -5 -1 -4 -23z"/>
<path d="M8002 6028 l-2 -348 90 0 90 0 0 99 c0 81 -3 100 -16 105 -23 9 -24
8 -25 -16 -2 -44 -17 23 -18 80 -1 38 -5 54 -17 59 -9 3 -19 0 -23 -6 -6 -9
-16 -9 -42 3 l-34 14 58 1 58 1 -7 173 c-4 94 -7 173 -8 174 -1 1 -21 -1 -44
-4 -26 -4 -39 -9 -31 -14 9 -5 9 -11 -4 -23 -14 -15 -16 -13 -20 16 -2 18 -5
-123 -5 -314z m68 198 c0 -2 -9 -6 -20 -9 -11 -3 -20 -1 -20 4 0 5 9 9 20 9
11 0 20 -2 20 -4z m-53 -373 c-3 -10 -5 -2 -5 17 0 19 2 27 5 18 2 -10 2 -26
0 -35z"/>
<path d="M8810 6099 c0 -18 -4 -20 -25 -15 -23 6 -25 4 -25 -29 0 -32 3 -35
28 -35 27 0 29 2 31 50 1 28 0 50 -4 50 -3 0 -5 -9 -5 -21z"/>
<path d="M7916 7514 c-14 -15 -26 -35 -26 -45 0 -17 9 -19 95 -19 86 0 95 2
95 19 0 10 -12 30 -26 45 -21 20 -37 26 -69 26 -32 0 -48 -6 -69 -26z"/>
<path d="M7887 7434 c-3 -3 -3 -13 0 -22 11 -31 36 -52 75 -63 33 -9 44 -7 72
11 34 20 46 38 46 66 0 11 -19 14 -93 14 -52 0 -96 -3 -100 -6z"/>
<path d="M2320 6608 c0 -3 23 -41 50 -82 28 -42 50 -80 50 -85 0 -6 6 -14 14
-18 8 -4 14 -11 13 -14 -3 -10 66 -149 74 -149 4 0 9 7 12 14 4 9 1 13 -6 10
-8 -3 -23 19 -40 55 -31 67 -34 84 -12 55 15 -17 15 -16 2 11 -23 46 -156 219
-157 203z"/>
<path d="M2521 6245 c0 -5 4 -17 9 -25 7 -11 10 -11 10 -2 0 7 5 10 12 6 7 -4
8 -3 4 5 -4 6 -11 9 -16 6 -4 -3 -11 1 -13 7 -3 7 -6 9 -6 3z"/>
<path d="M2560 6164 c0 -9 5 -12 12 -8 8 5 9 2 4 -12 -4 -10 -4 -15 0 -11 10
10 35 -73 27 -87 -4 -8 -3 -8 6 0 11 10 7 32 -21 107 -11 29 -28 36 -28 11z"/>
<path d="M1690 4930 c103 -86 502 -342 682 -438 75 -39 98 -48 102 -37 3 8 1
14 -4 12 -5 -1 -51 26 -102 61 -229 154 -342 225 -488 305 -30 16 -80 44 -110
62 -30 18 -66 38 -80 44 l-25 12 25 -21z"/>
<path d="M4565 3830 c-4 -7 3 -9 20 -6 37 7 44 16 12 16 -14 0 -29 -5 -32 -10z"/>
<path d="M4595 3810 c-7 -12 2 -12 30 0 19 8 19 9 -2 9 -12 1 -25 -3 -28 -9z"/>
<path d="M3570 3725 c0 -5 5 -17 10 -25 5 -8 10 -10 10 -5 0 6 -5 17 -10 25
-5 8 -10 11 -10 5z"/>
<path d="M6140 5463 c-8 -3 -30 -19 -47 -36 -25 -23 -33 -40 -33 -65 0 -55 37
-106 86 -118 33 -8 91 13 114 43 24 31 27 99 4 131 -26 37 -84 58 -124 45z
m70 -83 c24 -24 25 -43 5 -64 -25 -25 -54 -29 -80 -12 -32 21 -33 60 -3 80 30
21 54 20 78 -4z"/>
<path d="M5564 5456 c-86 -38 -99 -144 -24 -203 8 -7 34 -13 56 -13 84 0 146
89 110 159 -28 54 -91 79 -142 57z m66 -70 c28 -35 -11 -93 -47 -70 -36 22
-23 84 17 84 10 0 23 -7 30 -14z"/>
<path d="M6679 5456 c-63 -28 -88 -101 -55 -164 21 -40 59 -56 123 -53 23 1
82 55 84 75 0 6 2 21 5 34 13 72 -85 139 -157 108z m69 -69 c17 -11 15 -52 -3
-67 -21 -18 -48 -8 -59 22 -16 44 20 70 62 45z"/>
<path d="M8099 5316 c-2 -2 -141 -9 -309 -16 l-305 -12 -40 -41 -40 -42 40 37
40 36 315 11 c173 6 325 11 338 11 12 0 22 5 22 10 0 9 -52 15 -61 6z"/>
<path d="M7234 5003 c-21 -27 -61 -72 -89 -102 -27 -30 -45 -52 -40 -50 19 7
185 199 172 199 -2 0 -22 -21 -43 -47z"/>
<path d="M7028 4764 c-69 -83 -91 -123 -33 -59 81 91 116 135 106 135 -6 0
-39 -34 -73 -76z"/>
<path d="M6921 4636 l-24 -31 28 27 c16 15 27 29 24 31 -2 3 -15 -10 -28 -27z"/>
<path d="M7395 4610 c3 -5 11 -10 16 -10 6 0 7 5 4 10 -3 6 -11 10 -16 10 -6
0 -7 -4 -4 -10z"/>
<path d="M7380 4591 c0 -6 7 -14 15 -17 8 -4 12 -11 8 -17 -3 -6 -1 -7 5 -3 7
4 12 14 12 23 0 9 -3 13 -7 10 -3 -4 -12 -2 -20 4 -9 9 -13 8 -13 0z"/>
<path d="M6846 4510 c-39 -43 -51 -68 -13 -29 37 40 60 69 55 69 -3 0 -22 -18
-42 -40z"/>
<path d="M7366 4511 c3 -3 -52 -11 -123 -17 l-128 -11 103 -3 c56 -1 108 -3
115 -3 19 0 45 13 50 27 3 7 -1 13 -9 13 -8 0 -11 -3 -8 -6z"/>
<path d="M6890 4500 c-15 -4 24 -9 97 -11 67 -2 119 -1 115 3 -10 10 -183 16
-212 8z"/>
<path d="M7466 4494 c-23 -23 -20 -30 4 -9 11 10 20 20 20 22 0 7 -9 2 -24
-13z"/>
<path d="M7355 4160 c-3 -5 -1 -10 4 -10 6 0 11 5 11 10 0 6 -2 10 -4 10 -3 0
-8 -4 -11 -10z"/>
<path d="M9156 2921 c-3 -5 2 -15 12 -24 14 -12 19 -13 29 -2 9 10 6 15 -12
23 -14 6 -27 8 -29 3z"/>
<path d="M8835 2820 c-3 -6 1 -7 9 -4 18 7 21 14 7 14 -6 0 -13 -4 -16 -10z"/>
<path d="M9265 2774 c17 -9 37 -24 45 -33 8 -9 24 -23 34 -31 18 -14 19 -14 8
7 -14 26 -58 58 -92 67 -22 6 -21 5 5 -10z"/>
<path d="M9367 2783 c-11 -11 22 -61 64 -97 24 -20 44 -34 46 -32 7 6 -27 68
-51 94 -25 28 -51 44 -59 35z"/>
<path d="M9093 2752 c-28 -4 -54 -44 -42 -63 5 -8 9 -9 9 -4 0 6 10 21 21 35
11 14 17 18 13 10 -6 -12 -5 -13 7 -3 8 6 25 13 39 15 l25 4 -25 4 c-14 3 -35
4 -47 2z"/>
<path d="M8680 2667 c-19 -7 -34 -16 -33 -22 3 -18 18 -15 48 10 34 28 33 28
-15 12z"/>
<path d="M8890 2618 c-11 -12 -20 -33 -19 -47 0 -16 3 -20 6 -11 7 17 44 46
56 42 4 -1 7 2 7 6 0 5 16 8 36 7 31 -1 33 1 18 12 -28 21 -80 16 -104 -9z"/>
<path d="M9424 2625 c-13 -32 55 -118 109 -138 14 -5 17 0 17 35 0 35 -6 47
-40 80 -42 39 -76 49 -86 23z"/>
<path d="M9295 2580 c-20 -22 -14 -65 13 -91 14 -13 20 -14 37 -3 29 18 83 24
89 11 2 -7 5 0 5 14 1 29 -13 48 -51 72 -36 22 -71 21 -93 -3z"/>
<path d="M9139 2547 c-18 -9 -25 -22 -27 -50 -2 -20 1 -45 7 -54 8 -14 11 -15
11 -3 1 33 30 54 79 60 49 5 49 5 32 26 -21 26 -70 36 -102 21z"/>
<path d="M9505 2454 c-10 -10 -14 -25 -11 -38 3 -12 6 -29 6 -38 0 -23 54 -84
80 -91 25 -6 50 17 50 45 0 34 -40 104 -70 121 -35 21 -35 21 -55 1z"/>
<path d="M8473 2443 c9 -2 23 -2 30 0 6 3 -1 5 -18 5 -16 0 -22 -2 -12 -5z"/>
<path d="M8694 2436 c-32 -14 -53 -36 -35 -36 5 0 13 5 16 10 4 6 11 7 17 4 7
-4 8 -2 4 4 -4 7 -1 12 9 12 12 0 15 -5 11 -16 -5 -13 -2 -15 11 -9 26 11 49
8 83 -9 28 -13 29 -13 20 4 -10 18 -68 50 -92 50 -7 -1 -27 -7 -44 -14z"/>
<path d="M8233 2433 c9 -2 23 -2 30 0 6 3 -1 5 -18 5 -16 0 -22 -2 -12 -5z"/>
<path d="M8414 2424 c-18 -15 -18 -15 0 -10 16 6 17 4 6 -9 -22 -27 -5 -26 21
1 19 21 20 24 5 18 -14 -5 -17 -4 -12 4 10 16 3 15 -20 -4z"/>
<path d="M8182 2423 c-12 -5 -37 -43 -28 -43 3 0 17 11 32 25 26 24 24 30 -4
18z"/>
<path d="M8945 2418 c-32 -17 -45 -39 -45 -75 0 -18 2 -33 4 -33 2 0 19 15 38
34 47 47 81 55 119 27 l29 -21 -11 23 c-21 47 -89 70 -134 45z"/>
<path d="M9340 2400 c-11 -11 -20 -29 -20 -40 0 -56 58 -129 104 -131 15 -1
12 -3 -11 -10 -24 -7 -34 -18 -43 -45 -14 -41 -6 -108 16 -142 13 -20 12 -26
-12 -70 -35 -60 -33 -57 -45 -45 -8 8 -3 22 16 51 22 33 25 46 19 78 -11 62
-39 94 -82 95 -35 0 -35 1 -12 10 63 25 78 77 38 135 -36 52 -65 65 -112 49
-21 -8 -43 -20 -47 -27 -23 -35 2 -117 42 -139 21 -11 21 -11 1 -32 -31 -35
-39 -59 -35 -107 2 -31 9 -50 24 -60 20 -16 20 -16 -13 -66 -31 -46 -35 -49
-51 -34 -9 9 -17 22 -17 28 0 25 -110 29 -146 5 -36 -23 -57 -78 -49 -126 8
-47 40 -107 58 -107 7 0 -6 -9 -29 -19 -22 -10 -50 -31 -61 -47 l-21 -29 -24
21 c-50 47 -130 53 -191 15 -45 -27 -61 -61 -54 -108 8 -46 34 -83 73 -103 26
-12 27 -15 9 -18 -11 -2 -30 -13 -41 -24 -21 -19 -22 -19 -63 3 -58 30 -135
23 -167 -15 -21 -24 -23 -24 -29 -6 -17 54 -137 80 -188 40 -34 -27 -45 -75
-21 -101 53 -59 130 -77 193 -46 28 14 33 14 38 1 15 -41 145 -60 190 -29 19
13 24 13 50 0 42 -22 111 -19 165 9 29 15 50 20 56 14 23 -23 83 -26 127 -7
25 11 48 25 52 32 20 31 38 37 67 22 16 -8 35 -15 44 -15 25 0 8 -10 -24 -14
-48 -7 -67 -17 -111 -59 l-41 -40 -29 21 c-33 23 -103 40 -103 24 0 -5 -15
-13 -33 -16 -19 -3 -44 -17 -57 -31 l-23 -24 -36 25 c-57 38 -156 30 -189 -17
-13 -19 -14 -19 -43 9 -38 37 -97 55 -154 46 -37 -5 -45 -11 -54 -35 -15 -42
-6 -55 55 -85 62 -30 130 -30 164 1 11 10 20 14 20 9 0 -21 61 -45 116 -45 43
-1 63 4 87 21 29 22 31 22 76 6 25 -9 59 -16 74 -16 40 0 106 37 119 66 11 24
12 24 19 6 10 -27 68 -37 112 -18 19 8 53 31 76 51 l41 38 -20 35 -21 35 23
15 c13 9 40 32 60 52 35 35 39 36 88 30 l51 -7 45 52 c24 29 42 59 40 66 -17
56 -15 78 15 116 17 21 38 54 46 73 l15 35 10 -27 c7 -21 16 -28 36 -28 52 1
91 94 68 161 -11 32 -11 41 1 59 33 47 31 153 -3 187 -10 10 -8 20 7 50 31 59
11 132 -45 168 -23 15 -26 15 -50 -6 -17 -15 -26 -33 -26 -52 l0 -29 -33 29
c-18 15 -30 30 -27 33 19 14 31 54 24 83 -10 47 -25 67 -68 88 -50 24 -71 24
-96 -1z m248 -322 c12 -15 11 -21 -6 -45 -10 -15 -24 -41 -29 -58 l-10 -30
-16 26 c-16 24 -16 27 3 64 11 22 20 50 20 63 0 25 6 22 38 -20z m-4 -223 c24
-24 24 -25 6 -35 -17 -9 -44 -67 -53 -115 l-4 -20 -7 20 c-4 11 -12 28 -16 37
-7 12 -2 29 15 60 14 24 25 51 25 61 0 23 4 22 34 -8z m-204 -65 c0 -5 7 -10
15 -10 22 0 18 -18 -5 -25 -11 -3 -20 -11 -20 -16 0 -5 -9 -19 -20 -31 -11
-12 -20 -28 -20 -35 0 -19 -13 -16 -28 7 -10 17 -10 21 2 26 8 3 25 25 37 50
23 42 39 56 39 34z m-250 -120 c-34 -37 -38 -39 -63 -27 -30 14 -35 27 -11 27
23 0 84 67 85 93 1 15 5 10 13 -16 11 -37 11 -40 -24 -77z m239 -139 c-22 -7
-56 -44 -77 -83 -14 -28 -22 -34 -30 -26 -20 20 -14 39 28 84 22 24 40 48 40
54 0 6 12 3 26 -7 18 -11 22 -19 13 -22z m-236 -51 c9 -11 13 -20 8 -20 -4 0
-28 -18 -52 -39 -44 -38 -45 -39 -67 -21 -21 17 -21 19 -4 24 10 4 33 22 52
41 19 19 37 35 40 35 3 0 13 -9 23 -20z m-273 -10 c0 -6 14 -19 31 -29 l32
-20 -36 -14 c-19 -8 -39 -22 -43 -29 -15 -25 -39 -27 -64 -5 -17 13 -21 21
-12 24 24 9 72 55 72 69 0 8 5 14 10 14 6 0 10 -5 10 -10z"/>
<path d="M8679 2383 c-13 -16 -12 -17 4 -4 16 13 21 21 13 21 -2 0 -10 -8 -17
-17z"/>
<path d="M7626 2202 c-2 -4 4 -8 15 -8 10 0 19 4 19 8 0 4 -6 8 -14 8 -8 0
-17 -4 -20 -8z"/>
<path d="M8433 2180 c-30 -12 -53 -50 -57 -94 -3 -43 6 -47 21 -7 22 61 113
89 164 52 31 -23 35 -21 18 11 -20 38 -97 58 -146 38z"/>
<path d="M7762 2168 c-19 -19 -14 -33 6 -15 22 20 43 22 62 5 12 -11 12 -10 1
5 -15 20 -51 23 -69 5z"/>
<path d="M7954 2170 c-26 -10 -54 -48 -53 -70 0 -12 2 -12 6 -1 14 35 48 61
80 61 18 0 33 5 33 10 0 12 -37 12 -66 0z"/>
<path d="M8182 2160 c-7 -11 -19 -20 -28 -20 -8 0 -12 -4 -9 -10 3 -5 1 -10
-4 -10 -6 0 -11 -8 -11 -17 1 -17 1 -17 10 -1 6 9 26 26 45 38 39 24 85 21
119 -9 18 -15 18 -15 7 6 -23 44 -107 59 -129 23z"/>
<path d="M8669 2151 c-23 -23 -29 -39 -29 -70 0 -23 5 -41 10 -41 6 0 10 7 10
15 0 8 19 28 42 45 51 37 116 42 148 10 11 -11 20 -15 20 -9 0 6 -15 26 -34
45 -30 30 -40 34 -86 34 -44 0 -56 -4 -81 -29z"/>
<path d="M8964 2170 c-56 -22 -74 -121 -31 -173 42 -52 139 -30 180 41 16 27
17 37 7 67 -21 64 -89 92 -156 65z m109 -47 c-7 -2 -19 -2 -25 0 -7 3 -2 5 12
5 14 0 19 -2 13 -5z m-73 -38 c0 -1 -11 -5 -25 -7 -20 -4 -23 -2 -14 8 8 10
39 10 39 -1z m110 5 c0 -5 -5 -10 -11 -10 -5 0 -7 5 -4 10 3 6 8 10 11 10 2 0
4 -4 4 -10z"/>
<path d="M7586 1978 c-25 -35 -19 -50 9 -22 25 25 27 25 50 10 29 -19 33 -7 7
17 -25 23 -48 21 -66 -5z"/>
<path d="M7726 1931 c-10 -11 -16 -30 -14 -43 4 -23 5 -23 16 5 15 35 37 43
75 29 29 -11 29 -11 12 8 -23 25 -67 26 -89 1z"/>
<path d="M7915 1905 c-17 -16 -25 -34 -24 -57 1 -22 3 -26 6 -13 15 58 95 83
151 48 27 -17 27 -17 12 2 -26 35 -44 44 -83 45 -27 0 -45 -7 -62 -25z"/>
<path d="M8180 1903 c-44 -23 -65 -60 -56 -98 l7 -29 17 33 c30 63 99 85 160
52 29 -15 28 0 -2 28 -31 30 -83 35 -126 14z"/>
<path d="M8439 1894 c-20 -8 -41 -26 -48 -40 -15 -34 -13 -94 5 -124 l14 -25
-2 31 c-4 46 18 79 69 106 l43 23 40 -22 c52 -28 54 -7 5 36 -40 35 -70 38
-126 15z"/>
<path d="M8730 1894 c-56 -20 -90 -68 -90 -127 0 -55 80 -123 132 -113 81 16
136 106 104 172 -8 18 -26 40 -38 48 -26 17 -86 28 -108 20z"/>
<path d="M7571 1781 c-17 -31 7 -52 49 -42 19 5 29 9 23 10 -7 1 -13 10 -13
20 0 17 -18 31 -40 31 -5 0 -14 -8 -19 -19z"/>
<path d="M7718 1728 c-9 -7 -17 -20 -18 -28 -5 -36 1 -60 14 -60 8 0 12 7 10
18 -8 31 12 46 58 45 l43 -2 -24 20 c-27 22 -60 25 -83 7z"/>
<path d="M7880 1650 c-15 -37 -6 -91 20 -115 18 -17 20 -17 20 -1 0 9 -7 19
-15 22 -8 4 -15 16 -15 28 0 17 2 18 10 6 7 -11 8 -6 4 18 -5 23 -3 32 7 33 8
0 26 3 42 5 18 3 34 -2 49 -16 16 -14 24 -17 27 -9 8 24 -47 59 -93 59 -39 0
-45 -3 -56 -30z"/>
<path d="M8097 1622 c-66 -68 -1 -187 98 -180 53 3 84 34 91 90 6 45 4 50 -29
83 -31 31 -41 35 -84 35 -41 0 -54 -5 -76 -28z m173 -47 c7 -8 9 -15 6 -15 -4
0 -14 7 -22 15 -9 8 -11 15 -6 15 5 0 15 -7 22 -15z"/>
<path d="M8368 1625 c-36 -20 -48 -44 -48 -94 0 -56 16 -85 60 -110 67 -37
150 -22 174 32 17 37 14 110 -4 133 -37 43 -136 65 -182 39z"/>
<path d="M9545 1588 c-34 -38 -55 -84 -55 -117 0 -26 4 -31 23 -31 28 1 47 16
76 62 44 72 6 145 -44 86z"/>
<path d="M7604 1589 c-18 -30 34 -138 59 -122 7 4 18 8 25 9 24 4 24 11 3 51
-27 53 -72 85 -87 62z"/>
<path d="M8013 1525 c0 -8 4 -12 9 -9 5 3 6 10 3 15 -9 13 -12 11 -12 -6z"/>
<path d="M7748 1498 c-6 -38 5 -76 35 -114 26 -32 32 -35 75 -32 45 3 47 4 50
36 6 63 -57 132 -121 132 -28 0 -35 -4 -39 -22z"/>
<path d="M7930 1512 c0 -5 7 -9 15 -9 8 0 15 4 15 9 0 4 -7 8 -15 8 -8 0 -15
-4 -15 -8z"/>
<path d="M7952 1434 c-32 -22 -29 -66 8 -108 35 -39 72 -55 115 -49 40 6 55
20 55 52 0 31 -40 90 -73 108 -31 17 -78 16 -105 -3z"/>
<path d="M9321 1323 c-39 -20 -98 -77 -107 -105 -13 -41 51 -69 89 -39 51 39
88 84 76 91 -6 5 -12 22 -13 39 -1 36 -1 36 -45 14z"/>
<path d="M7830 1280 c0 -41 67 -103 121 -111 22 -3 42 -2 44 1 2 4 -6 26 -19
50 -27 51 -78 90 -118 90 -24 0 -28 -4 -28 -30z"/>
<path d="M8032 1228 c-33 -33 11 -103 86 -135 29 -12 37 -12 67 3 45 21 46 50
3 90 -55 50 -128 70 -156 42z"/>
<path d="M8140 1050 c0 -56 118 -109 185 -84 14 6 13 10 -7 31 -28 30 -79 53
-135 60 -29 3 -43 1 -43 -7z"/>
<path d="M8924 1028 c-55 -37 -66 -71 -25 -76 32 -5 140 37 151 59 21 37 12
49 -34 49 -33 0 -56 -8 -92 -32z"/>
<path d="M8393 1005 c-44 -32 26 -85 113 -85 95 0 111 45 29 81 -48 21 -116
23 -142 4z"/>
<path d="M8667 999 c-74 -39 -54 -79 40 -79 67 0 123 22 123 48 0 52 -91 69
-163 31z"/>
<path d="M6824 9710 c-31 -12 -72 -66 -80 -105 -13 -72 39 -147 111 -161 49
-9 80 1 122 39 69 64 53 181 -31 221 -37 17 -88 20 -122 6z"/>
<path d="M9392 9632 c-43 -43 -18 -112 40 -112 44 0 70 47 52 94 -4 9 -18 16
-34 16 -16 0 -30 5 -32 12 -3 8 -12 4 -26 -10z"/>
<path d="M8967 9317 c-4 -11 -5 -23 -1 -28 3 -5 0 -9 -5 -9 -6 0 -11 -7 -11
-15 0 -8 -7 -15 -15 -15 -8 0 -15 -4 -15 -10 0 -5 -9 -10 -20 -10 -11 0 -20
-7 -20 -15 0 -11 -11 -15 -40 -15 -29 0 -40 -4 -40 -15 0 -20 -44 -65 -64 -65
-10 0 -16 13 -19 43 -2 23 -5 -261 -8 -631 l-4 -672 143 0 142 0 -1 638 c-2
638 -7 854 -22 819z"/>
<path d="M7564 9211 c-57 -35 -81 -128 -49 -191 20 -38 82 -80 118 -80 68 0
141 56 153 117 22 118 -119 217 -222 154z"/>
<path d="M9347 9007 c-4 -16 -6 -36 -3 -45 3 -10 1 -42 -3 -72 -8 -54 -9 -54
-10 -12 -1 30 -5 42 -16 42 -8 0 -15 -5 -15 -11 0 -16 -26 -39 -44 -39 -9 0
-16 -7 -16 -15 0 -12 -13 -15 -60 -15 -53 0 -60 2 -60 19 0 11 -4 23 -10 26
-7 4 -10 -169 -10 -512 l0 -518 135 3 135 3 -1 317 c-2 463 -13 862 -22 829z"/>
<path d="M7986 8933 c-6 -14 -5 -15 5 -6 7 7 10 15 7 18 -3 3 -9 -2 -12 -12z"/>
<path d="M7931 8873 c-1 -8 -15 -13 -36 -13 -19 0 -35 -4 -35 -10 0 -5 -9 -10
-19 -10 -11 0 -26 -6 -33 -14 -15 -14 -74 -31 -96 -27 -8 1 -20 -3 -28 -10 -8
-6 -62 -17 -122 -24 -91 -10 -110 -10 -129 3 -13 8 -23 12 -23 9 0 -3 21 -19
48 -36 93 -59 283 -58 371 3 22 16 38 33 34 39 -3 6 -1 7 6 3 12 -8 91 70 91
89 0 5 -4 4 -9 -4 -7 -11 -9 -11 -14 0 -4 10 -6 10 -6 2z"/>
<path d="M1420 8566 c0 -20 -64 -86 -84 -86 -9 0 -25 -9 -36 -20 -11 -11 -33
-20 -49 -20 -20 0 -36 -9 -49 -25 -11 -14 -23 -22 -26 -16 -3 5 1 14 9 21 8 7
15 18 15 24 0 6 -10 -1 -23 -15 -51 -60 -128 -90 -204 -79 -23 4 -40 3 -37 -2
3 -4 0 -8 -5 -8 -6 0 -11 -7 -11 -15 0 -8 -9 -15 -20 -15 -11 0 -20 -6 -20
-13 0 -7 -31 -23 -71 -35 -67 -21 -73 -22 -90 -6 -11 10 -19 14 -19 9 0 -15
67 -66 125 -95 111 -55 281 -49 390 15 44 26 119 99 140 136 49 86 66 133 72
193 3 36 3 66 -1 66 -3 0 -6 -6 -6 -14z m-450 -230 c0 -11 -19 -15 -25 -6 -3
5 1 10 9 10 9 0 16 -2 16 -4z m-185 -96 c-3 -5 -12 -10 -18 -10 -7 0 -6 4 3
10 19 12 23 12 15 0z"/>
<path d="M1060 8420 c-9 -6 -10 -10 -3 -10 6 0 15 5 18 10 8 12 4 12 -15 0z"/>
<path d="M1003 8403 c9 -2 23 -2 30 0 6 3 -1 5 -18 5 -16 0 -22 -2 -12 -5z"/>
<path d="M8581 8325 c-2 -38 -6 -58 -8 -42 -4 27 -4 27 -89 27 -68 0 -84 -3
-84 -15 0 -11 -11 -15 -39 -15 -39 0 -40 0 -46 -45 -13 -81 -2 -191 21 -222
46 -61 130 -81 191 -43 58 35 64 60 60 252 -1 95 -4 142 -6 103z"/>
<path d="M8513 7782 c-30 -5 -63 -48 -63 -83 0 -56 95 -93 133 -51 23 25 22
94 0 114 -23 19 -42 25 -70 20z"/>
<path d="M872 7578 c-8 -8 -8 -15 -1 -24 13 -16 4 -34 -17 -34 -8 0 -12 -4 -9
-10 3 -5 -1 -10 -9 -10 -9 0 -16 -4 -16 -10 0 -5 -16 -10 -35 -10 -28 0 -35
-4 -35 -20 0 -16 -7 -20 -34 -20 -25 0 -35 -5 -39 -20 -5 -18 -27 -26 -64 -21
-7 1 -13 -5 -13 -14 0 -12 -6 -15 -21 -10 -19 6 -21 4 -17 -13 3 -12 1 -23 -5
-25 -6 -2 -7 -9 -3 -15 5 -8 39 -12 100 -12 93 0 94 0 105 28 15 36 72 65 109
56 37 -9 80 -40 87 -64 6 -18 16 -20 106 -20 115 0 116 1 75 92 -30 68 -93
133 -158 163 -47 22 -53 22 -74 8 -14 -8 -24 -11 -24 -5 0 6 8 13 18 15 13 4
13 5 2 6 -9 0 -21 -4 -28 -11z m-244 -219 c-7 -5 -22 -9 -32 -9 -19 0 -19 0
-1 14 11 8 25 11 33 8 11 -4 11 -6 0 -13z"/>
<path d="M817 7332 c-35 -39 -3 -111 42 -95 52 19 67 70 29 97 -29 21 -51 20
-71 -2z"/>
<path d="M560 7257 c0 -39 29 -109 64 -157 119 -162 397 -137 492 45 17 33 35
77 38 98 l7 37 -101 0 c-55 0 -100 -4 -100 -9 0 -23 -54 -71 -86 -77 -46 -9
-80 8 -105 51 l-21 35 -94 0 c-92 0 -94 -1 -94 -23z"/>
<path d="M9660 7042 c0 -5 7 -15 15 -22 8 -7 15 -9 15 -6 0 4 -7 14 -15 22 -8
9 -15 11 -15 6z"/>
<path d="M9591 6316 c-27 -29 -27 -70 1 -96 44 -41 118 -10 118 49 0 58 -79
90 -119 47z"/>
<path d="M9663 5783 c26 -2 68 -2 95 0 26 2 4 3 -48 3 -52 0 -74 -1 -47 -3z"/>
<path d="M9552 5617 c-2 -128 -1 -138 16 -133 9 3 31 8 47 12 96 21 188 119
200 212 3 26 1 42 -5 42 -6 0 -9 -4 -6 -9 3 -5 -21 -12 -54 -15 -44 -5 -64
-12 -73 -27 -6 -10 -19 -19 -29 -19 -27 0 -48 -11 -48 -26 0 -8 -9 -14 -20
-14 -16 0 -20 8 -23 58 -2 31 -4 -5 -5 -81z"/>
<path d="M9507 5568 c-5 -27 -11 -49 -15 -49 -33 -7 -79 -6 -89 3 -9 7 -13 7
-13 0 0 -11 24 -21 63 -26 12 -2 30 -7 40 -11 26 -11 28 -4 25 66 l-3 64 -8
-47z"/>
<path d="M835 5308 c-16 -12 -32 -25 -35 -28 -3 -3 -18 -16 -33 -30 -25 -21
-27 -22 -21 -5 7 18 6 19 -10 6 -9 -8 -15 -20 -12 -28 3 -8 1 -11 -4 -8 -6 4
-25 -3 -44 -14 -18 -12 -50 -21 -70 -21 -20 0 -36 -5 -36 -11 0 -6 7 -8 18 -4
12 4 14 3 6 -5 -6 -6 -41 -16 -77 -23 -60 -10 -68 -9 -89 9 l-23 19 20 -24
c31 -37 102 -63 172 -63 106 -1 193 55 244 154 16 31 34 99 26 98 -1 0 -15
-10 -32 -22z"/>
<path d="M765 5289 c-4 -6 -5 -12 -2 -15 2 -3 7 2 10 11 7 17 1 20 -8 4z"/>
<path d="M545 5170 c3 -5 8 -10 11 -10 2 0 4 5 4 10 0 6 -5 10 -11 10 -5 0 -7
-4 -4 -10z"/>
<path d="M9830 4558 c0 -19 2 -20 10 -8 13 19 13 30 0 30 -5 0 -10 -10 -10
-22z"/>
<path d="M9856 4535 c-17 -17 -36 -20 -36 -5 0 6 -30 9 -72 8 l-73 -2 63 -3
c34 -2 62 -7 62 -12 0 -16 -47 -51 -68 -51 -12 0 -22 -6 -22 -14 0 -8 -10 -18
-22 -22 -13 -4 -29 -15 -36 -25 -7 -11 -20 -19 -28 -19 -8 0 -17 -7 -20 -15
-4 -8 -15 -15 -25 -15 -12 0 -19 -7 -19 -19 0 -14 -10 -21 -36 -26 -25 -4 -38
-13 -42 -27 -3 -15 -11 -19 -28 -15 -24 4 -24 4 -24 -89 0 -108 -5 -105 101
-76 81 23 151 62 204 116 51 52 105 134 105 158 0 11 4 17 8 14 4 -2 8 3 9 12
1 9 6 45 10 80 5 34 8 62 7 62 -1 0 -9 -7 -18 -15z"/>
<path d="M580 4490 c-13 -8 -13 -10 2 -10 9 0 20 5 23 10 8 13 -5 13 -25 0z"/>
<path d="M519 4352 c-148 -149 -171 -178 -144 -188 9 -4 36 18 74 58 32 35 85
84 116 108 63 49 71 56 127 117 40 43 40 54 -1 52 -20 -1 -62 -37 -172 -147z"/>
<path d="M479 4460 c-56 -30 -131 -120 -100 -120 9 0 74 50 141 109 29 25 32
30 15 30 -11 0 -36 -8 -56 -19z"/>
<path d="M709 4408 l-43 -53 51 45 c50 44 62 60 44 60 -5 0 -29 -24 -52 -52z"/>
<path d="M458 4358 c-58 -53 -104 -104 -106 -116 -2 -16 14 -3 60 45 62 66
116 117 147 140 9 6 13 14 9 18 -4 4 -53 -35 -110 -87z"/>
<path d="M507 4248 c-65 -67 -117 -128 -117 -136 0 -12 4 -11 21 4 20 17 175
194 208 237 34 44 -5 7 -112 -105z"/>
<path d="M9361 4233 c-1 -7 -7 -13 -15 -13 -8 0 -30 -15 -48 -34 -34 -35 -78
-56 -78 -37 0 6 -7 11 -15 11 -8 0 -15 -5 -15 -11 0 -5 5 -7 10 -4 6 3 10 2
10 -3 0 -12 122 -52 157 -52 22 0 23 3 23 78 0 47 -4 72 -9 63 -7 -11 -9 -11
-14 0 -4 10 -6 10 -6 2z"/>
<path d="M9235 4160 c-3 -6 1 -7 9 -4 18 7 21 14 7 14 -6 0 -13 -4 -16 -10z"/>
<path d="M9238 3690 c-66 -73 -106 -124 -102 -133 3 -8 -2 -17 -10 -20 -19 -8
-21 -27 -3 -26 10 0 58 51 230 241 27 30 34 44 25 50 -7 4 -17 8 -23 7 -5 0
-58 -53 -117 -119z"/>
<path d="M9415 3790 c-3 -5 -3 -15 1 -22 4 -6 3 -8 -3 -5 -9 6 -262 -260 -271
-284 -2 -5 1 -9 6 -9 10 0 250 249 292 303 21 27 21 27 1 27 -11 0 -23 -4 -26
-10z"/>
<path d="M9374 3651 c-224 -233 -229 -240 -211 -258 15 -15 26 -8 138 103 120
117 219 235 219 259 0 36 -36 10 -146 -104z"/>
<path d="M9372 3541 c-95 -99 -169 -182 -164 -185 4 -2 57 48 117 112 61 64
139 147 174 184 35 37 60 68 55 68 -5 0 -87 -81 -182 -179z"/>
<path d="M9524 3635 c-21 -24 -92 -101 -158 -170 l-118 -125 22 -18 c23 -18
23 -18 110 72 48 50 106 114 129 141 24 28 54 63 67 79 25 29 25 66 0 66 -7 0
-30 -20 -52 -45z"/>
<path d="M9144 3628 l-19 -23 23 19 c21 18 27 26 19 26 -2 0 -12 -10 -23 -22z"/>
<path d="M9548 3539 c-32 -41 -89 -109 -129 -151 -39 -43 -65 -78 -58 -78 8 0
46 37 84 82 39 45 92 106 118 134 28 31 47 60 45 70 -2 12 -20 -5 -60 -57z"/>
<path d="M9563 3481 c-128 -146 -144 -168 -124 -174 28 -7 160 140 168 188 3
19 4 35 2 35 -2 -1 -23 -22 -46 -49z"/>
<path d="M9559 3383 l-24 -28 28 24 c15 14 27 26 27 28 0 8 -8 1 -31 -24z"/>
<path d="M1268 3313 c86 -4 88 -5 71 -53 l-9 -25 4 26 c2 21 -1 25 -16 21 -10
-2 -18 -10 -18 -17 0 -6 -18 -20 -40 -30 -22 -10 -40 -25 -40 -33 0 -8 -6 -12
-15 -9 -11 5 -9 -4 7 -38 12 -24 26 -41 31 -38 6 3 7 1 4 -4 -4 -6 2 -32 14
-57 19 -43 22 -46 59 -46 l40 0 0 155 0 155 -87 -2 -88 -2 83 -3z"/>
<path d="M810 3285 c-7 -14 -19 -25 -25 -25 -7 0 -20 -10 -29 -22 l-17 -23 6
25 c2 14 2 19 -1 13 -8 -19 -21 -16 -26 5 -6 21 -38 26 -38 5 0 -9 -13 -13
-40 -13 -22 0 -40 -4 -40 -10 0 -5 -17 -10 -37 -10 -21 0 -56 -7 -78 -14 l-40
-14 30 -13 c39 -16 196 -25 175 -9 -12 8 -10 9 10 5 18 -4 41 4 79 27 51 31
115 98 94 98 -5 0 -16 -11 -23 -25z"/>
<path d="M648 3273 c7 -3 16 -2 19 1 4 3 -2 6 -13 5 -11 0 -14 -3 -6 -6z"/>
<path d="M1176 3227 c3 -10 9 -15 12 -12 3 3 0 11 -7 18 -10 9 -11 8 -5 -6z"/>
<path d="M1628 2793 c6 -2 18 -2 25 0 6 3 1 5 -13 5 -14 0 -19 -2 -12 -5z"/>
<path d="M1568 2783 c6 -2 18 -2 25 0 6 3 1 5 -13 5 -14 0 -19 -2 -12 -5z"/>
<path d="M1507 2588 c6 -7 41 -52 77 -100 37 -49 69 -88 71 -88 2 0 4 45 4
100 l1 100 -81 0 c-64 0 -79 -3 -72 -12z"/>
<path d="M5500 2439 l0 -152 68 8 c37 4 87 9 112 11 25 2 65 6 90 9 25 2 51 4
58 4 14 1 16 59 5 189 l-6 82 -163 0 -164 0 0 -151z"/>
<path d="M5858 2455 c-3 -117 -1 -134 12 -130 9 3 51 9 93 15 43 5 83 12 88
16 6 3 21 3 35 0 17 -5 24 -13 24 -31 0 -14 -4 -25 -10 -25 -5 0 -10 -3 -10
-7 0 -5 23 -8 50 -9 l50 -1 -1 116 c0 64 -3 109 -7 100 -13 -31 -115 -4 -127
34 -4 12 -7 25 -6 29 0 4 -9 6 -22 6 -69 -4 -158 3 -152 12 3 6 2 10 -4 10 -6
0 -11 -53 -13 -135z"/>
<path d="M6217 2405 c-12 -139 -26 -125 119 -125 69 0 123 -4 120 -8 -3 -5 1
-9 9 -9 8 0 12 4 9 9 -3 4 8 5 25 2 51 -11 57 0 50 106 -3 52 -6 86 -7 75 -3
-20 -3 -20 -17 -1 -13 18 -31 20 -158 24 l-144 4 -6 -77z"/>
<path d="M7035 2434 c-9 -15 -12 -23 -6 -20 11 7 35 46 28 46 -3 0 -12 -12
-22 -26z"/>
<path d="M6577 2378 c-4 -12 -7 -38 -7 -57 l0 -33 43 6 c79 12 240 44 242 49
1 1 9 16 20 32 17 27 17 29 1 15 -14 -11 -46 -14 -150 -11 -72 1 -134 7 -137
13 -3 5 -9 -1 -12 -14z"/>
<path d="M7261 2345 c-1 -22 -19 -45 -34 -45 -4 0 -6 4 -3 8 3 5 -1 9 -8 9 -8
0 -12 -6 -9 -14 14 -37 70 5 60 45 -4 13 -5 13 -6 -3z"/>
<path d="M7007 2306 c-6 -14 6 -16 96 -14 l102 2 -90 3 c-49 2 -92 9 -96 14
-4 7 -9 4 -12 -5z"/>
<path d="M6840 2289 c-19 -5 -78 -17 -130 -28 -166 -34 -162 -40 33 -40 174
-1 182 0 179 30 -1 3 4 6 11 7 7 1 24 4 40 8 17 4 27 2 27 -5 0 -6 -10 -11
-22 -11 -21 0 -21 0 -2 -15 10 -8 30 -15 45 -15 14 0 31 -6 39 -12 8 -8 7 -2
-3 15 l-17 27 40 0 c25 0 39 -4 35 -10 -4 -6 -10 -8 -15 -5 -4 3 -10 -2 -13
-10 -5 -12 0 -11 28 2 19 9 35 21 35 25 0 5 3 7 8 4 4 -2 18 2 32 10 22 13 8
14 -131 12 -97 -1 -162 2 -170 8 -9 7 -27 8 -49 3z m184 -47 c2 -4 -4 -9 -15
-9 -11 -1 -17 2 -14 8 7 11 22 12 29 1z"/>
<path d="M1641 2229 l-11 -31 -65 4 c-36 2 -65 0 -65 -5 0 -4 -5 -5 -11 -2
-25 16 -60 11 -84 -11 -14 -13 -25 -20 -25 -17 0 3 -18 -12 -41 -35 -24 -25
-37 -47 -33 -53 4 -7 3 -9 -4 -5 -13 8 -49 -86 -64 -164 -5 -30 -7 -86 -3
-125 10 -105 13 -115 42 -115 40 0 140 -59 176 -104 26 -32 58 -80 81 -122 1
-1 30 -5 65 -9 l64 -7 -6 173 c-4 96 -7 186 -7 202 l0 27 -115 0 c-95 0 -115
3 -115 15 0 22 42 28 146 22 l94 -5 0 199 c-1 109 -3 199 -5 199 -1 0 -8 -14
-14 -31z m-213 -48 c-7 -11 -16 -17 -21 -14 -4 3 0 11 10 19 24 18 25 17 11
-5z"/>
<path d="M5728 2253 c6 -2 18 -2 25 0 6 3 1 5 -13 5 -14 0 -19 -2 -12 -5z"/>
<path d="M5558 2243 c-27 -2 -48 -8 -48 -13 0 -8 31 -6 115 10 44 9 20 10 -67
3z"/>
<path d="M7225 2225 l-40 -24 43 -1 c38 0 42 2 42 25 0 14 -1 25 -2 25 -2 0
-21 -11 -43 -25z"/>
<path d="M705 2227 c-64 -25 -109 -77 -120 -139 -9 -47 17 -137 47 -165 70
-66 191 -70 256 -10 117 108 53 304 -104 321 -28 3 -62 0 -79 -7z"/>
<path d="M5440 2230 c0 -5 -13 -7 -29 -4 -23 5 -32 2 -40 -14 -6 -11 -22 -23
-36 -26 -29 -7 -40 -28 -126 -227 -34 -79 -65 -149 -71 -156 -5 -6 -6 -22 -3
-36 6 -21 16 -27 68 -37 34 -7 69 -13 77 -15 187 -39 187 -39 215 -16 15 11
40 21 55 21 21 0 32 8 44 33 9 17 26 48 39 69 102 167 115 193 110 226 -7 46
18 82 60 83 26 1 27 3 8 6 -30 6 -71 -15 -71 -36 0 -14 -2 -14 -10 -1 -8 12
-10 11 -10 -7 l0 -23 -52 20 c-29 10 -70 22 -90 26 -23 4 -35 10 -31 17 4 6 0
8 -8 5 -8 -3 -24 -2 -36 3 -19 7 -23 16 -23 52 0 36 -3 43 -20 44 -11 1 -20
-2 -20 -7z m-40 -20 c0 -5 -5 -10 -11 -10 -5 0 -7 5 -4 10 3 6 8 10 11 10 2 0
4 -4 4 -10z"/>
<path d="M6528 2213 c7 -3 16 -2 19 1 4 3 -2 6 -13 5 -11 0 -14 -3 -6 -6z"/>
<path d="M5660 2109 c0 -5 5 -7 10 -4 6 3 10 8 10 11 0 2 -4 4 -10 4 -5 0 -10
-5 -10 -11z"/>
<path d="M6147 2099 c12 -12 24 -21 27 -18 2 2 -8 13 -22 23 l-27 19 22 -24z"/>
<path d="M6235 2090 c-3 -6 1 -7 9 -4 18 7 21 14 7 14 -6 0 -13 -4 -16 -10z"/>
<path d="M5879 2048 c-5 -36 -2 -39 206 -250 l210 -214 42 4 c37 4 54 16 170
128 70 68 121 122 113 119 -20 -6 -37 5 -43 30 -4 18 -5 18 -6 -2 -1 -26 -4
-27 -33 -12 -12 6 -78 25 -147 41 -69 16 -136 32 -149 35 -16 4 -21 11 -17 21
4 12 3 13 -9 2 -12 -9 -25 -9 -63 4 -26 9 -81 22 -120 31 -109 22 -141 38
-145 72 -3 26 -4 25 -9 -9z m691 -242 c0 -8 -4 -18 -10 -21 -5 -3 -10 3 -10
14 0 12 5 21 10 21 6 0 10 -6 10 -14z"/>
<path d="M7008 2073 c7 -3 16 -2 19 1 4 3 -2 6 -13 5 -11 0 -14 -3 -6 -6z"/>
<path d="M6729 1943 c-13 -16 -12 -17 4 -4 16 13 21 21 13 21 -2 0 -10 -8 -17
-17z"/>
<path d="M6809 1933 l-24 -28 28 24 c15 14 27 26 27 28 0 8 -8 1 -31 -24z"/>
<path d="M6690 1910 c-8 -5 -12 -12 -9 -15 4 -3 12 1 19 10 14 17 11 19 -10 5z"/>
<path d="M6645 1869 c-11 -17 1 -21 15 -4 8 9 8 15 2 15 -6 0 -14 -5 -17 -11z"/>
<path d="M6948 1863 c6 -2 18 -2 25 0 6 3 1 5 -13 5 -14 0 -19 -2 -12 -5z"/>
<path d="M6760 1815 c0 -8 9 -15 20 -15 11 0 20 5 20 10 0 6 12 10 26 10 14 0
23 -4 19 -10 -8 -13 37 -8 48 5 6 6 7 4 4 -5 -2 -8 -1 -24 4 -35 6 -15 8 -11
8 18 l1 37 -75 0 c-60 0 -75 -3 -75 -15z"/>
<path d="M7301 1695 c1 -98 4 -133 13 -128 32 18 106 86 105 96 0 8 -2 8 -6
-1 -2 -7 -25 -26 -50 -44 -26 -17 -43 -26 -39 -20 4 7 2 12 -3 12 -7 0 -11 36
-11 98 l0 99 46 1 c25 0 51 5 57 11 8 8 -6 11 -51 11 l-63 0 2 -135z"/>
<path d="M6810 1802 c0 -14 54 -32 70 -22 17 10 -3 22 -24 14 -9 -3 -23 -1
-31 6 -9 7 -15 8 -15 2z"/>
<path d="M6879 1073 c-49 -82 -144 -229 -156 -241 -7 -7 -13 -18 -13 -23 0 -5
80 -9 190 -9 105 0 190 3 190 6 0 6 -108 196 -146 256 -33 52 -39 53 -65 11z
m87 -151 c20 -35 34 -66 31 -68 -2 -3 -48 -3 -101 -2 l-96 3 52 84 c58 95 51
96 114 -17z"/>
<path d="M1181 1054 c0 -11 3 -14 6 -6 3 7 2 16 -1 19 -3 4 -6 -2 -5 -13z"/>
<path d="M7483 1059 c-18 -5 -44 -25 -59 -44 -24 -32 -26 -41 -21 -92 7 -67
40 -108 101 -124 78 -21 149 21 167 100 24 105 -79 193 -188 160z m120 -81
c35 -42 34 -71 -4 -108 -42 -39 -81 -40 -120 -1 -42 42 -35 107 15 144 23 17
81 -2 109 -35z"/>
<path d="M1288 1023 c7 -3 16 -2 19 1 4 3 -2 6 -13 5 -11 0 -14 -3 -6 -6z"/>
</g>
</svg>
